<?xml version="1.0" encoding="utf-8"?>
<!-- Generator: Adobe Illustrator 16.0.0, SVG Export Plug-In . SVG Version: 6.00 Build 0)  -->
<!DOCTYPE svg PUBLIC "-//W3C//DTD SVG 1.1//EN" "http://www.w3.org/Graphics/SVG/1.1/DTD/svg11.dtd">
<svg version="1.1" id="Layer_1" xmlns="http://www.w3.org/2000/svg" xmlns:xlink="http://www.w3.org/1999/xlink" x="0px" y="0px"
	 width="708.66px" height="595.281px" viewBox="0 0 708.66 595.281" enable-background="new 0 0 708.66 595.281"
	 xml:space="preserve">
<g id="Layer_1_1_">
</g>
<g id="Layer_2">
	<g>
		<g>
			<g>
				<path fill="#5893D4" d="M61.807,483.935H27.974c-0.284,0-0.514-0.229-0.514-0.515c0-0.284,0.229-0.514,0.514-0.514h33.833
					c0.283,0,0.514,0.229,0.514,0.514C62.321,483.706,62.09,483.935,61.807,483.935z"/>
			</g>
			<g>
				<path fill="#5893D4" d="M251.063,483.935H71.243c-0.284,0-0.514-0.229-0.514-0.515c0-0.284,0.229-0.514,0.514-0.514h179.82
					c0.283,0,0.514,0.229,0.514,0.514C251.577,483.706,251.346,483.935,251.063,483.935z"/>
			</g>
			<g>
				<path fill="#5893D4" d="M623.069,483.935H530.69c-0.283,0-0.514-0.229-0.514-0.515c0-0.284,0.229-0.514,0.514-0.514h92.379
					c0.285,0,0.516,0.229,0.516,0.514C623.585,483.706,623.354,483.935,623.069,483.935z"/>
			</g>
			<g>
				<path fill="#5893D4" d="M704.177,483.935H686.96c-0.283,0-0.515-0.229-0.515-0.515c0-0.284,0.229-0.514,0.515-0.514h17.217
					c0.283,0,0.515,0.229,0.515,0.514C704.691,483.706,704.46,483.935,704.177,483.935z"/>
			</g>
			<g>
				<path fill="#CEDDEF" d="M662.397,510.465c0,13.181-111.349,31.937-250.188,31.937c-138.847,0-252.612-18.756-252.612-31.931
					c0-13.184,112.557-23.862,251.404-23.862C549.842,486.606,662.397,497.288,662.397,510.465z"/>
			</g>
			<g>
				<path fill="#CEDDEF" d="M705.352,517.603c0,0.783-6.603,1.894-14.831,1.894c-8.231,0-14.978-1.11-14.978-1.891
					c0-0.783,6.674-1.416,14.905-1.416C698.679,516.19,705.352,516.823,705.352,517.603z"/>
			</g>
			<g opacity="0.2">
				<rect x="90.398" y="57.078" fill="#5893D4" width="160.307" height="224.034"/>
			</g>
			<g>
				<rect x="93.075" y="52.879" fill="#FFFFFF" width="160.308" height="224.034"/>
			</g>
			<g>
				<path fill="#E3EBF3" d="M138.747,141.442h-24.62v-24.621h24.62V141.442z M115.595,139.975h21.683v-21.684h-21.683V139.975z"/>
			</g>
			<g>
				<path fill="#E3EBF3" d="M138.747,170.876h-24.62v-24.622h24.62V170.876z M115.595,169.407h21.683v-21.684h-21.683V169.407z"/>
			</g>
			<g>
				<path fill="#E3EBF3" d="M138.747,112.009h-24.62v-24.62h24.62V112.009z M115.595,110.541h21.683V88.858h-21.683V110.541z"/>
			</g>
			<g>
				<path fill="#E3EBF3" d="M138.747,200.334h-24.62v-24.621h24.62V200.334z M115.595,198.866h21.683v-21.684h-21.683V198.866z"/>
			</g>
			<g>
				<path fill="#E3EBF3" d="M138.747,229.768h-24.62v-24.62h24.62V229.768z M115.595,228.298h21.683v-21.684h-21.683V228.298z"/>
			</g>
			<g>
				<path fill="#E3EBF3" d="M138.747,259.285h-24.62v-24.62h24.62V259.285z M115.595,257.816h21.683v-21.683h-21.683V257.816z"/>
			</g>
			<g>
				<g>
					<path fill="#070D59" d="M135.564,109.562c-0.188,0-0.375-0.072-0.52-0.215L116.788,91.09c-0.286-0.287-0.286-0.752,0-1.04
						c0.287-0.286,0.752-0.286,1.04,0l18.256,18.258c0.286,0.286,0.286,0.752,0,1.039
						C135.939,109.49,135.751,109.562,135.564,109.562z"/>
				</g>
				<g>
					<path fill="#070D59" d="M117.308,109.562c-0.188,0-0.375-0.072-0.52-0.215c-0.286-0.286-0.286-0.752,0-1.039l18.256-18.258
						c0.288-0.286,0.752-0.286,1.04,0c0.286,0.286,0.286,0.752,0,1.04l-18.256,18.257
						C117.683,109.49,117.495,109.562,117.308,109.562z"/>
				</g>
			</g>
			<g>
				<g>
					<g>
						<rect x="144.467" y="89.293" fill="#E3EBF3" width="89.691" height="4.162"/>
					</g>
				</g>
				<g>
					<g>
						<rect x="144.467" y="105.943" fill="#E3EBF3" width="75.124" height="4.162"/>
					</g>
				</g>
				<g>
					<g>
						<rect x="144.467" y="97.619" fill="#E3EBF3" width="95.935" height="4.163"/>
					</g>
				</g>
			</g>
			<g>
				<g>
					<g>
						<rect x="144.467" y="148.16" fill="#E3EBF3" width="95.935" height="4.162"/>
					</g>
				</g>
				<g>
					<g>
						<rect x="144.467" y="164.81" fill="#E3EBF3" width="54.203" height="4.163"/>
					</g>
				</g>
				<g>
					<g>
						<rect x="144.467" y="156.485" fill="#E3EBF3" width="95.935" height="4.162"/>
					</g>
				</g>
			</g>
			<g>
				<g>
					<g>
						<rect x="144.467" y="118.726" fill="#E3EBF3" width="93.854" height="4.162"/>
					</g>
				</g>
				<g>
					<g>
						<rect x="144.467" y="135.375" fill="#E3EBF3" width="75.124" height="4.164"/>
					</g>
				</g>
				<g>
					<g>
						<rect x="144.467" y="127.051" fill="#E3EBF3" width="83.448" height="4.162"/>
					</g>
				</g>
			</g>
			<g>
				<g>
					<g>
						<rect x="144.467" y="177.618" fill="#E3EBF3" width="89.691" height="4.162"/>
					</g>
				</g>
				<g>
					<g>
						<rect x="144.467" y="194.266" fill="#E3EBF3" width="75.124" height="4.162"/>
					</g>
				</g>
				<g>
					<g>
						<rect x="144.467" y="185.942" fill="#E3EBF3" width="95.935" height="4.164"/>
					</g>
				</g>
			</g>
			<g>
				<g>
					<g>
						<rect x="144.467" y="236.57" fill="#E3EBF3" width="95.935" height="4.162"/>
					</g>
				</g>
				<g>
					<g>
						<rect x="144.467" y="253.218" fill="#E3EBF3" width="54.203" height="4.164"/>
					</g>
				</g>
				<g>
					<g>
						<rect x="144.467" y="244.894" fill="#E3EBF3" width="95.935" height="4.162"/>
					</g>
				</g>
			</g>
			<g>
				<g>
					<g>
						<rect x="144.467" y="207.051" fill="#E3EBF3" width="93.854" height="4.162"/>
					</g>
				</g>
				<g>
					<g>
						<rect x="144.467" y="223.701" fill="#E3EBF3" width="75.124" height="4.163"/>
					</g>
				</g>
				<g>
					<g>
						<rect x="144.467" y="215.376" fill="#E3EBF3" width="83.448" height="4.162"/>
					</g>
				</g>
			</g>
			<g>
				<g>
					<g opacity="0.5">
						<g>
							<rect x="42.781" y="220.643" fill="#D4CCBF" width="2.396" height="262.275"/>
						</g>
						<g>
							<rect x="99.04" y="220.643" fill="#D4CCBF" width="2.395" height="262.275"/>
						</g>
						<g>
							<g>
								<rect x="43.979" y="458.646" fill="#D4CCBF" width="56.26" height="2.637"/>
							</g>
							<g>
								<rect x="43.979" y="437.009" fill="#D4CCBF" width="56.26" height="2.637"/>
							</g>
							<g>
								<rect x="43.979" y="415.373" fill="#D4CCBF" width="56.26" height="2.637"/>
							</g>
							<g>
								<rect x="43.979" y="393.735" fill="#D4CCBF" width="56.26" height="2.64"/>
							</g>
							<g>
								<rect x="43.979" y="372.098" fill="#D4CCBF" width="56.26" height="2.64"/>
							</g>
							<g>
								<rect x="43.979" y="350.461" fill="#D4CCBF" width="56.26" height="2.64"/>
							</g>
							<g>
								<rect x="43.979" y="328.828" fill="#D4CCBF" width="56.26" height="2.637"/>
							</g>
							<g>
								<rect x="43.979" y="307.19" fill="#D4CCBF" width="56.26" height="2.637"/>
							</g>
							<g>
								<rect x="43.979" y="285.555" fill="#D4CCBF" width="56.26" height="2.637"/>
							</g>
							<g>
								<rect x="43.979" y="263.918" fill="#D4CCBF" width="56.26" height="2.638"/>
							</g>
							<g>
								<rect x="43.979" y="242.283" fill="#D4CCBF" width="56.26" height="2.638"/>
							</g>
						</g>
					</g>
					<g>
						<polygon fill="#070D59" points="63.51,491.51 65.907,491.51 101.459,220.552 99.062,220.552 						"/>
					</g>
					<g>
						<polygon fill="#070D59" points="7.254,491.51 9.649,491.51 45.2,220.552 42.805,220.552 						"/>
					</g>
					<g>
						<g>
							<rect x="11.329" y="466.432" fill="#070D59" width="56.26" height="2.724"/>
						</g>
						<g>
							<rect x="14.259" y="444.081" fill="#070D59" width="56.26" height="2.724"/>
						</g>
						<g>
							<rect x="17.188" y="421.727" fill="#070D59" width="56.26" height="2.724"/>
						</g>
						<g>
							<rect x="20.119" y="399.375" fill="#070D59" width="56.26" height="2.724"/>
						</g>
						<g>
							<rect x="23.048" y="377.021" fill="#070D59" width="56.26" height="2.724"/>
						</g>
						<g>
							<rect x="25.978" y="354.669" fill="#070D59" width="56.26" height="2.727"/>
						</g>
						<g>
							<rect x="28.907" y="332.318" fill="#070D59" width="56.26" height="2.724"/>
						</g>
						<g>
							<rect x="31.836" y="309.964" fill="#070D59" width="56.26" height="2.727"/>
						</g>
						<g>
							<rect x="34.766" y="287.612" fill="#070D59" width="56.26" height="2.725"/>
						</g>
						<g>
							<rect x="37.697" y="265.26" fill="#070D59" width="56.26" height="2.725"/>
						</g>
						<g>
							<rect x="40.626" y="242.908" fill="#070D59" width="56.26" height="2.725"/>
						</g>
					</g>
				</g>
			</g>
			<g opacity="0.2">
				<path fill="#5893D4" d="M331.25,499.041c-15.743,0.873-31.558,6.57-30.319,11.079c1.609,5.859,23.616,11.37,62.889,13.192
					c125.74,1.967,150.229-19.314,136.818-22.523C459.438,490.938,374.894,496.615,331.25,499.041z"/>
			</g>
			<g>
				<g>
					<path fill="#5893D4" d="M354.843,486.242c-0.058,0-0.117-0.008-0.177-0.026c-0.208-0.068-5.267-1.708-18.463-7.955
						c-50.705-24.004-102.925-77.548-97.429-155.832c0.023-0.319,0.302-0.557,0.621-0.538c0.321,0.023,0.562,0.301,0.539,0.622
						c-5.455,77.699,46.409,130.857,96.767,154.699c13.106,6.201,18.27,7.881,18.32,7.896c0.306,0.098,0.475,0.425,0.377,0.73
						C355.318,486.083,355.09,486.242,354.843,486.242z"/>
				</g>
				<g>
					<path fill="#5893D4" d="M325.069,489.421L325.069,489.421c-1.338,0-2.681-0.152-3.997-0.456
						c-6.273-1.444-11.179-6.159-13.12-12.611c-0.525-1.745-1.655-3.825-4.062-3.825c-0.729,0-1.546,0.189-2.434,0.556
						c-4.876,2.03-10.368,2.463-15.693,1.234c-6.854-1.577-12.684-5.729-16.414-11.694c-3.729-5.964-4.912-13.022-3.333-19.881
						c0.208-0.901,0.474-1.821,0.789-2.729c0.383-1.1,0.319-2.207-0.167-2.893c-0.516-0.728-1.485-1.021-2.897-0.836
						c-2.2,0.279-4.611,0.108-7.394-0.532c-6.272-1.445-11.605-5.247-15.017-10.703c-3.413-5.455-4.496-11.915-3.049-18.19
						c0.645-2.808,1.778-5.447,3.365-7.842c0.742-1.118,0.994-2.265,0.675-3.069c-0.278-0.701-0.994-1.194-2.127-1.46
						c-10.529-2.471-17.126-13.023-14.707-23.52c0.753-3.27,2.451-6.384,5.046-9.255c1.036-1.147,1.479-2.118,1.398-3.057
						c-0.095-1.126-0.963-2.314-2.652-3.639c-4.79-3.757-6.973-10.138-5.563-16.255c0.885-3.848,3.229-7.246,6.777-9.832
						c1.022-0.747,1.655-1.74,1.69-2.658c0.032-0.82-0.392-1.613-1.258-2.36c-3.038-2.604-3.292-7.132-2.514-10.502
						c1.279-5.553,6.146-9.432,11.835-9.432c0.917,0,1.836,0.105,2.736,0.312c3.163,0.729,5.852,2.644,7.575,5.399
						c1.722,2.752,2.268,6.009,1.539,9.173c-0.535,2.312-1.717,4.397-3.422,6.03c-0.539,0.517-1.077,1.408-0.976,2.365
						c0.088,0.822,0.624,1.539,1.59,2.136c5.136,3.15,7.649,10.003,6.115,16.661c-0.693,3.009-1.708,5.094-3.197,6.57
						c-0.993,0.981-1.457,2.102-1.27,3.069c0.14,0.728,0.656,1.315,1.452,1.656c8.709,3.691,13.474,13.12,11.332,22.417
						c-0.339,1.472-0.845,2.896-1.505,4.237c-0.458,0.934-0.487,1.954-0.079,2.729c0.46,0.872,1.447,1.441,2.853,1.643
						c0.837,0.121,1.531,0.248,2.183,0.4c6.271,1.442,11.605,5.244,15.016,10.7c3.413,5.458,4.496,11.918,3.049,18.19
						c-0.299,1.297-0.49,3.056,0.3,4.048c0.533,0.669,1.501,0.94,2.91,0.801c3.362-0.335,6.331-0.185,9.142,0.462
						c13.048,3.006,21.973,15.282,20.322,27.949c-0.187,1.429-0.044,2.423,0.421,2.95c0.324,0.372,0.831,0.543,1.588,0.543
						c0.625,0,1.316-0.121,1.927-0.227l0.183-0.034c2.309-0.4,4.708-0.338,7.013,0.192c4.621,1.065,8.551,3.865,11.064,7.887
						c2.515,4.021,3.313,8.78,2.246,13.399C340.491,483.755,333.381,489.421,325.069,489.421z M303.891,471.369
						c2.435,0,4.271,1.65,5.173,4.65c1.82,6.046,6.407,10.463,12.27,11.815c1.228,0.282,2.485,0.425,3.733,0.425
						c7.769,0,14.413-5.295,16.159-12.875c0.996-4.319,0.251-8.768-2.1-12.522c-2.349-3.757-6.021-6.373-10.339-7.366
						c-2.157-0.496-4.397-0.56-6.553-0.183l-0.181,0.032c-0.657,0.115-1.403,0.247-2.128,0.247c-1.103,0-1.908-0.306-2.462-0.936
						c-0.705-0.805-0.934-2.07-0.701-3.871c1.574-12.078-6.961-23.791-19.431-26.665c-2.688-0.619-5.534-0.762-8.767-0.44
						c-1.875,0.188-3.142-0.237-3.935-1.233c-0.866-1.087-1.042-2.782-0.523-5.034c1.375-5.969,0.344-12.118-2.902-17.312
						c-3.249-5.191-8.324-8.81-14.292-10.183c-0.62-0.146-1.283-0.267-2.086-0.38c-2.26-0.327-3.269-1.405-3.715-2.252
						c-0.591-1.12-0.568-2.499,0.064-3.786c0.62-1.263,1.096-2.603,1.415-3.986c2.016-8.746-2.465-17.613-10.653-21.086
						c-1.165-0.496-1.926-1.385-2.141-2.505c-0.259-1.358,0.321-2.855,1.594-4.116c1.325-1.313,2.241-3.222,2.882-6.004
						c1.424-6.181-0.875-12.517-5.591-15.411c-1.606-0.986-2.048-2.179-2.137-3.004c-0.125-1.165,0.372-2.412,1.328-3.327
						c1.54-1.477,2.61-3.362,3.094-5.453c0.659-2.86,0.164-5.806-1.392-8.295c-1.556-2.49-3.989-4.224-6.85-4.881
						c-0.815-0.188-1.648-0.281-2.476-0.281c-5.144,0-9.545,3.506-10.703,8.526c-0.701,3.038-0.506,7.093,2.138,9.36
						c1.434,1.231,1.695,2.469,1.663,3.288c-0.051,1.287-0.841,2.581-2.167,3.549c-2.314,1.688-5.29,4.644-6.329,9.155
						c-1.309,5.68,0.711,11.599,5.148,15.079c1.956,1.532,2.967,2.987,3.094,4.453c0.111,1.284-0.428,2.534-1.694,3.935
						c-2.461,2.727-4.068,5.663-4.776,8.738c-2.276,9.874,3.933,19.802,13.84,22.13c1.525,0.358,2.517,1.083,2.943,2.162
						c0.465,1.176,0.178,2.684-0.787,4.14c-1.511,2.278-2.588,4.788-3.202,7.462c-1.377,5.97-0.345,12.118,2.902,17.312
						c3.249,5.194,8.324,8.81,14.292,10.186c2.645,0.609,4.922,0.778,6.985,0.512c2.315-0.298,3.475,0.588,3.992,1.315
						c0.711,1.002,0.83,2.479,0.316,3.947c-0.301,0.87-0.555,1.748-0.753,2.61c-1.511,6.553-0.38,13.3,3.186,19.003
						c3.565,5.7,9.137,9.672,15.688,11.177c5.091,1.174,10.333,0.763,14.986-1.173C302.041,471.584,303.008,471.369,303.891,471.369
						z"/>
				</g>
				<g>
					<path fill="#5893D4" d="M239.579,344.363c-0.08,0-0.161-0.016-0.239-0.05l-8.753-3.95c-0.291-0.132-0.422-0.478-0.29-0.77
						c0.132-0.293,0.477-0.422,0.77-0.29l8.753,3.949c0.292,0.132,0.423,0.478,0.291,0.771
						C240.012,344.236,239.801,344.363,239.579,344.363z"/>
				</g>
				<g>
					<path fill="#5893D4" d="M239.771,350.533c-0.139,0-0.279-0.05-0.39-0.15c-0.238-0.216-0.255-0.583-0.041-0.822l8.212-9.065
						c0.218-0.237,0.583-0.256,0.821-0.042c0.238,0.216,0.256,0.585,0.041,0.822l-8.212,9.065
						C240.086,350.469,239.928,350.533,239.771,350.533z"/>
				</g>
				<g>
					<path fill="#5893D4" d="M239.13,336.527c-0.143,0-0.288-0.053-0.399-0.158c-0.234-0.222-0.243-0.591-0.023-0.823l4.259-4.498
						c0.222-0.232,0.589-0.245,0.821-0.023c0.233,0.221,0.243,0.588,0.022,0.819l-4.259,4.501
						C239.438,336.465,239.284,336.527,239.13,336.527z"/>
				</g>
				<g>
					<path fill="#5893D4" d="M239.272,323.345c-0.027,0-0.054-0.002-0.081-0.005c-0.317-0.045-0.539-0.338-0.496-0.657l1.48-10.617
						c0.043-0.316,0.331-0.544,0.656-0.496c0.318,0.045,0.539,0.338,0.496,0.656l-1.479,10.618
						C239.807,323.134,239.557,323.345,239.272,323.345z"/>
				</g>
				<g>
					<path fill="#5893D4" d="M239.362,323.617c-0.183,0-0.364-0.084-0.478-0.248l-4.237-6.062c-0.183-0.264-0.119-0.625,0.144-0.81
						c0.263-0.182,0.625-0.115,0.81,0.143l4.237,6.062c0.184,0.264,0.119,0.625-0.143,0.81
						C239.593,323.585,239.477,323.617,239.362,323.617z"/>
				</g>
				<g>
					<path fill="#5893D4" d="M239.932,320c-0.145,0-0.288-0.056-0.401-0.161c-0.232-0.222-0.241-0.591-0.021-0.822l4.663-4.899
						c0.223-0.231,0.59-0.24,0.822-0.019c0.233,0.222,0.242,0.588,0.021,0.823l-4.663,4.896
						C240.238,319.939,240.086,320,239.932,320z"/>
				</g>
				<g>
					<path fill="#5893D4" d="M244.312,373.609c-0.059,0-0.12-0.008-0.181-0.028l-11.091-3.62c-0.305-0.101-0.47-0.428-0.371-0.733
						c0.101-0.306,0.427-0.472,0.733-0.372l11.09,3.623c0.305,0.101,0.471,0.427,0.372,0.733
						C244.786,373.454,244.558,373.609,244.312,373.609z"/>
				</g>
				<g>
					<path fill="#5893D4" d="M245.837,379.924c-0.117,0-0.236-0.034-0.339-0.111c-0.26-0.187-0.32-0.551-0.132-0.81l8.148-11.329
						c0.187-0.259,0.551-0.319,0.811-0.132c0.261,0.187,0.32,0.551,0.133,0.809l-8.149,11.33
						C246.196,379.839,246.018,379.924,245.837,379.924z"/>
				</g>
				<g>
					<path fill="#5893D4" d="M248.797,387.42c-0.048,0-0.095-0.005-0.143-0.019l-10.873-2.713c-0.311-0.079-0.501-0.394-0.422-0.707
						c0.077-0.309,0.39-0.504,0.705-0.422l10.873,2.716c0.311,0.079,0.5,0.393,0.422,0.704
						C249.293,387.244,249.057,387.42,248.797,387.42z"/>
				</g>
				<g>
					<path fill="#5893D4" d="M257.403,406.442c-0.094,0-0.189-0.024-0.278-0.074c-0.282-0.152-0.386-0.506-0.232-0.788l5.16-9.461
						c0.153-0.282,0.505-0.385,0.788-0.231c0.282,0.155,0.386,0.506,0.232,0.788l-5.159,9.461
						C257.809,406.331,257.609,406.442,257.403,406.442z"/>
				</g>
				<g>
					<path fill="#5893D4" d="M265.742,419.224c-0.116,0-0.233-0.036-0.336-0.107c-0.262-0.188-0.322-0.549-0.136-0.81l9.763-13.729
						c0.187-0.261,0.548-0.322,0.81-0.135c0.262,0.185,0.323,0.549,0.136,0.81l-9.763,13.727
						C266.104,419.137,265.923,419.224,265.742,419.224z"/>
				</g>
				<g>
					<path fill="#5893D4" d="M262.537,414.653c-0.012,0-0.024,0-0.036,0l-16.377-1.005c-0.32-0.021-0.564-0.296-0.544-0.614
						c0.021-0.322,0.3-0.567,0.616-0.546l16.376,1.005c0.321,0.018,0.564,0.295,0.545,0.614
						C263.097,414.416,262.842,414.653,262.537,414.653z"/>
				</g>
				<g>
					<path fill="#5893D4" d="M273.214,445.011c-0.311,0-0.568-0.245-0.581-0.559c-0.012-0.321,0.238-0.591,0.559-0.602l13.531-0.506
						c0.289-0.045,0.59,0.237,0.603,0.559c0.012,0.319-0.238,0.591-0.559,0.602l-13.532,0.506
						C273.229,445.011,273.222,445.011,273.214,445.011z"/>
				</g>
				<g>
					<path fill="#5893D4" d="M287.764,466.894c-0.183,0-0.361-0.085-0.474-0.245c-0.186-0.262-0.125-0.623,0.137-0.81l14.013-9.98
						c0.262-0.188,0.624-0.124,0.81,0.138c0.187,0.261,0.125,0.624-0.136,0.809l-14.013,9.98
						C288,466.86,287.881,466.894,287.764,466.894z"/>
				</g>
				<g>
					<path fill="#5893D4" d="M294.262,450.712c-0.062,0-0.127-0.014-0.189-0.032c-0.304-0.105-0.464-0.435-0.36-0.738l5.161-15
						c0.105-0.301,0.435-0.461,0.738-0.358c0.304,0.105,0.465,0.435,0.361,0.738l-5.161,14.997
						C294.729,450.559,294.503,450.712,294.262,450.712z"/>
				</g>
				<g>
					<path fill="#5893D4" d="M282.999,440.45c-0.044,0-0.087-0.005-0.131-0.016c-0.313-0.071-0.507-0.385-0.436-0.696l1.725-7.48
						c0.072-0.313,0.383-0.511,0.696-0.438c0.313,0.071,0.508,0.385,0.436,0.696L283.564,440
						C283.502,440.268,283.263,440.45,282.999,440.45z"/>
				</g>
				<g>
					<path fill="#5893D4" d="M322.779,471.121c-0.061,0-0.123-0.008-0.183-0.029c-0.305-0.101-0.47-0.43-0.368-0.733l3.435-10.285
						c0.101-0.304,0.433-0.47,0.734-0.367c0.305,0.101,0.47,0.431,0.367,0.736l-3.435,10.283
						C323.25,470.967,323.023,471.121,322.779,471.121z"/>
				</g>
				<g>
					<path fill="#5893D4" d="M331.675,475.94c-0.096,0-0.192-0.023-0.282-0.073c-0.281-0.158-0.38-0.512-0.224-0.791l3.266-5.852
						c0.157-0.279,0.511-0.382,0.792-0.224c0.281,0.155,0.38,0.509,0.223,0.791l-3.266,5.851
						C332.078,475.833,331.88,475.94,331.675,475.94z"/>
				</g>
				<g>
					<path fill="#5893D4" d="M321.506,481.266c-0.125,0-0.25-0.042-0.357-0.124c-0.254-0.197-0.299-0.562-0.103-0.814l5.752-7.409
						c0.196-0.253,0.562-0.301,0.815-0.103c0.254,0.197,0.299,0.562,0.103,0.814l-5.753,7.409
						C321.85,481.187,321.679,481.266,321.506,481.266z"/>
				</g>
				<g>
					<path fill="#5893D4" d="M314.598,472.433c-0.165,0-0.329-0.068-0.444-0.205c-0.207-0.245-0.175-0.612,0.069-0.82l3.965-3.349
						c0.246-0.206,0.611-0.174,0.819,0.068c0.206,0.248,0.175,0.612-0.069,0.82l-3.965,3.349
						C314.864,472.388,314.73,472.433,314.598,472.433z"/>
				</g>
				<g>
					<path fill="#5893D4" d="M304.841,459.324c-0.058,0-0.117-0.008-0.175-0.029c-0.307-0.095-0.475-0.422-0.378-0.73l2.333-7.343
						c0.097-0.306,0.42-0.478,0.729-0.377c0.307,0.098,0.475,0.424,0.378,0.73l-2.332,7.343
						C305.317,459.166,305.087,459.324,304.841,459.324z"/>
				</g>
				<g>
					<path fill="#5893D4" d="M270.038,425.537c-0.001,0-0.001,0-0.003,0l-10.421-0.056c-0.321-0.002-0.579-0.264-0.578-0.585
						c0.001-0.321,0.267-0.606,0.584-0.577l10.421,0.055c0.321,0.003,0.579,0.264,0.578,0.586
						C270.616,425.279,270.356,425.537,270.038,425.537z"/>
				</g>
				<g>
					<path fill="#5893D4" d="M242.053,365.847c-0.108,0-0.216-0.029-0.312-0.093c-0.271-0.171-0.35-0.532-0.177-0.802l3.329-5.199
						c0.174-0.27,0.533-0.351,0.803-0.177c0.271,0.171,0.35,0.532,0.177,0.804l-3.328,5.197
						C242.432,365.751,242.245,365.847,242.053,365.847z"/>
				</g>
				<g>
					<path fill="#5893D4" d="M239.859,353.201c-0.07,0-0.142-0.013-0.212-0.042l-5.273-2.064c-0.299-0.118-0.447-0.453-0.33-0.754
						c0.117-0.298,0.454-0.446,0.753-0.33l5.273,2.067c0.298,0.116,0.447,0.453,0.33,0.754
						C240.311,353.061,240.09,353.201,239.859,353.201z"/>
				</g>
			</g>
			<g>
				<g>
					<path fill="#5893D4" d="M278.124,471.118c-0.042,0-0.083-0.005-0.124-0.013c-37.954-8.296-66.438-31.633-80.205-65.713
						c-0.12-0.298,0.024-0.636,0.322-0.759c0.298-0.116,0.637,0.026,0.757,0.321c13.619,33.716,41.809,56.803,79.375,65.014
						c0.313,0.068,0.512,0.377,0.444,0.69C278.631,470.933,278.391,471.118,278.124,471.118z"/>
				</g>
				<g>
					<path fill="#5893D4" d="M270.513,487.708c-8.522,0-16.254-5.866-18.257-14.518c-0.15-0.651-0.268-1.32-0.35-1.99
						c-0.093-0.805-0.467-1.45-0.973-1.688c-0.612-0.285-1.344,0.055-1.853,0.39c-1.323,0.87-2.928,1.517-4.906,1.97
						c-9.221,2.134-18.456-3.631-20.591-12.852c-0.463-2.006-0.562-4.05-0.294-6.072c0.117-0.88-0.057-1.629-0.466-2.001
						c-0.351-0.319-0.902-0.396-1.644-0.227c-7.529,1.703-15.067-3.001-16.801-10.489c-0.541-2.331-0.428-4.856,0.338-7.509
						c0.289-1,0.277-1.709-0.039-2.236c-0.384-0.638-1.265-1.1-2.695-1.405c-4.264-0.915-7.672-4.335-8.683-8.712
						c-0.638-2.753-0.2-5.672,1.266-8.44c0.394-0.743,0.484-1.513,0.246-2.057c-0.212-0.482-0.687-0.822-1.415-1.012
						c-2.805-0.733-4.404-3.584-4.964-6.007c-0.528-2.275-0.138-4.617,1.099-6.597c1.237-1.98,3.17-3.359,5.445-3.887
						s4.616-0.138,6.596,1.1c1.981,1.236,3.362,3.169,3.889,5.444c0.386,1.661,0.279,3.383-0.309,4.979
						c-0.167,0.456-0.229,1.128,0.097,1.65c0.281,0.448,0.8,0.709,1.542,0.783c4.301,0.417,8.074,4.034,9.176,8.799
						c0.5,2.148,0.498,3.817-0.001,5.25c-0.305,0.872-0.26,1.666,0.123,2.175c0.283,0.377,0.723,0.562,1.287,0.53
						c6.757-0.364,12.751,4.203,14.289,10.839c0.239,1.042,0.36,2.112,0.36,3.188c-0.001,0.68,0.271,1.286,0.727,1.619
						c0.517,0.377,1.264,0.422,2.162,0.134c0.495-0.16,1-0.309,1.52-0.43c9.219-2.13,18.453,3.636,20.589,12.854
						c0.295,1.281,0.793,2.128,1.401,2.381c0.48,0.2,1.112,0.063,1.874-0.406c1.762-1.086,3.458-1.854,5.187-2.344
						c0.314-0.09,0.63,0.092,0.718,0.397c0.088,0.312-0.092,0.633-0.399,0.72c-1.625,0.459-3.225,1.185-4.894,2.215
						c-1.096,0.678-2.082,0.847-2.932,0.491c-0.991-0.414-1.693-1.487-2.087-3.19c-1.993-8.594-10.603-13.973-19.194-11.984
						c-0.487,0.113-0.961,0.253-1.425,0.401c-1.601,0.514-2.625,0.121-3.204-0.304c-0.767-0.559-1.206-1.489-1.204-2.558
						c0-0.986-0.111-1.97-0.331-2.924c-1.409-6.083-6.906-10.252-13.095-9.94c-0.944,0.065-1.759-0.301-2.277-0.991
						c-0.62-0.823-0.727-2.013-0.291-3.257c0.418-1.199,0.408-2.705-0.034-4.604c-0.991-4.285-4.345-7.536-8.157-7.905
						c-1.395-0.137-2.082-0.796-2.414-1.323c-0.467-0.746-0.542-1.743-0.202-2.669c0.509-1.381,0.601-2.874,0.266-4.313
						c-0.457-1.972-1.655-3.649-3.373-4.72c-1.716-1.073-3.745-1.413-5.719-0.954c-1.974,0.456-3.648,1.65-4.721,3.369
						c-1.072,1.714-1.411,3.747-0.953,5.72c0.483,2.091,1.822,4.543,4.125,5.144c1.355,0.354,1.937,1.103,2.186,1.667
						c0.388,0.881,0.284,1.998-0.282,3.069c-0.929,1.756-1.886,4.509-1.161,7.639c0.91,3.937,3.969,7.014,7.793,7.833
						c1.763,0.377,2.891,1.013,3.449,1.946c0.493,0.822,0.543,1.824,0.16,3.153c-0.71,2.46-0.818,4.791-0.322,6.924
						c1.588,6.869,8.505,11.186,15.412,9.619c1.415-0.322,2.241,0.095,2.685,0.501c0.7,0.638,1.005,1.737,0.835,3.014
						c-0.25,1.885-0.157,3.786,0.275,5.658c1.991,8.596,10.6,13.972,19.198,11.981c1.842-0.425,3.322-1.016,4.529-1.809
						c1.369-0.899,2.376-0.754,2.981-0.473c0.883,0.412,1.494,1.385,1.637,2.601c0.076,0.627,0.187,1.258,0.328,1.869
						c2.187,9.442,11.647,15.343,21.088,13.162c3.575-0.825,6.703-2.665,9.047-5.32c0.985-1.118,2.053-1.693,3.175-1.706
						c1.139-0.023,2.346,0.591,3.419,1.753c2.982,3.223,7.194,4.583,11.266,3.645c3.273-0.76,6.046-2.9,7.608-5.88
						c0.15-0.282,0.501-0.391,0.786-0.243c0.283,0.148,0.394,0.501,0.245,0.786c-1.72,3.277-4.774,5.635-8.377,6.468
						c-4.48,1.039-9.113-0.451-12.381-3.986c-0.59-0.639-1.56-1.419-2.553-1.382c-0.779,0.011-1.558,0.451-2.317,1.312
						c-2.506,2.84-5.844,4.805-9.657,5.686C273.323,487.552,271.905,487.708,270.513,487.708z"/>
				</g>
				<g>
					<path fill="#5893D4" d="M198.297,419.393c-0.313,0-0.571-0.25-0.581-0.564c-0.009-0.321,0.243-0.588,0.563-0.599l6.769-0.2
						c0.337-0.039,0.588,0.243,0.598,0.564c0.01,0.319-0.243,0.588-0.563,0.596l-6.769,0.203
						C198.308,419.393,198.302,419.393,198.297,419.393z"/>
				</g>
				<g>
					<path fill="#5893D4" d="M207.095,423.042c-0.054,0-0.108-0.008-0.162-0.023c-0.309-0.09-0.486-0.412-0.396-0.72l2.4-8.285
						c0.089-0.309,0.411-0.49,0.72-0.398c0.309,0.09,0.486,0.412,0.397,0.721l-2.4,8.284
						C207.58,422.876,207.348,423.042,207.095,423.042z"/>
				</g>
				<g>
					<path fill="#5893D4" d="M202.36,414.363c-0.057,0-0.116-0.009-0.174-0.026c-0.307-0.096-0.477-0.422-0.38-0.729l1.307-4.168
						c0.096-0.309,0.421-0.48,0.729-0.383c0.307,0.098,0.477,0.422,0.381,0.73l-1.307,4.169
						C202.837,414.205,202.607,414.363,202.36,414.363z"/>
				</g>
				<g>
					<path fill="#5893D4" d="M198.372,405.967c-0.245,0-0.473-0.156-0.553-0.401l-2.345-7.185c-0.1-0.306,0.067-0.633,0.371-0.733
						c0.305-0.103,0.633,0.066,0.733,0.372l2.344,7.185c0.101,0.307-0.067,0.633-0.371,0.733
						C198.493,405.959,198.431,405.967,198.372,405.967z"/>
				</g>
				<g>
					<path fill="#5893D4" d="M198.512,406.112c-0.096,0-0.192-0.026-0.281-0.073l-4.558-2.531c-0.281-0.156-0.382-0.509-0.226-0.791
						c0.155-0.28,0.508-0.38,0.79-0.225l4.558,2.531c0.281,0.155,0.381,0.509,0.225,0.788
						C198.914,406.004,198.715,406.112,198.512,406.112z"/>
				</g>
				<g>
					<path fill="#5893D4" d="M197.756,403.641c-0.058,0-0.118-0.008-0.176-0.026c-0.306-0.098-0.476-0.424-0.379-0.73l1.439-4.543
						c0.098-0.309,0.427-0.477,0.73-0.379c0.307,0.097,0.477,0.422,0.379,0.729l-1.439,4.544
						C198.231,403.483,198.001,403.641,197.756,403.641z"/>
				</g>
				<g>
					<path fill="#5893D4" d="M208.962,437.394c-0.285,0-0.535-0.211-0.575-0.501c-0.044-0.319,0.177-0.611,0.495-0.656l8.147-1.134
						c0.327-0.048,0.613,0.177,0.656,0.495c0.044,0.319-0.177,0.612-0.495,0.657l-8.147,1.134
						C209.015,437.394,208.987,437.394,208.962,437.394z"/>
				</g>
				<g>
					<path fill="#5893D4" d="M220.029,439.789c-0.032,0-0.065-0.003-0.099-0.008c-0.316-0.053-0.529-0.354-0.476-0.67l1.659-9.695
						c0.054-0.316,0.345-0.538,0.671-0.475c0.315,0.053,0.529,0.354,0.475,0.67l-1.659,9.695
						C220.553,439.587,220.308,439.789,220.029,439.789z"/>
				</g>
				<g>
					<path fill="#5893D4" d="M216.49,445.265c-0.269,0-0.51-0.188-0.568-0.459c-0.066-0.316,0.134-0.622,0.448-0.691l7.734-1.637
						c0.312-0.069,0.623,0.134,0.69,0.448c0.066,0.313-0.135,0.622-0.448,0.688l-7.734,1.641
						C216.569,445.262,216.528,445.265,216.49,445.265z"/>
				</g>
				<g>
					<path fill="#5893D4" d="M235.56,453.019c-0.009,0-0.018,0-0.027,0c-0.32-0.016-0.568-0.284-0.555-0.606l0.343-7.591
						c0.015-0.321,0.287-0.554,0.608-0.554c0.32,0.013,0.568,0.285,0.555,0.606l-0.343,7.591
						C236.125,452.777,235.868,453.019,235.56,453.019z"/>
				</g>
				<g>
					<path fill="#5893D4" d="M244.795,458.545c-0.031,0-0.063-0.002-0.096-0.008c-0.317-0.053-0.532-0.353-0.478-0.669l1.944-11.716
						c0.053-0.316,0.351-0.532,0.668-0.477c0.317,0.053,0.532,0.351,0.478,0.667l-1.944,11.715
						C245.321,458.343,245.074,458.545,244.795,458.545z"/>
				</g>
				<g>
					<path fill="#5893D4" d="M230.658,461.061c-0.229,0-0.444-0.134-0.538-0.358c-0.123-0.298,0.019-0.636,0.314-0.76l10.691-4.424
						c0.295-0.119,0.637,0.019,0.758,0.313c0.122,0.296-0.019,0.636-0.314,0.76l-10.691,4.424
						C230.808,461.048,230.732,461.061,230.658,461.061z"/>
				</g>
				<g>
					<path fill="#5893D4" d="M257.505,472.576c-0.208,0-0.409-0.113-0.513-0.309c-0.151-0.282-0.045-0.633,0.239-0.785l8.42-4.501
						c0.283-0.15,0.635-0.045,0.787,0.239c0.151,0.282,0.044,0.633-0.239,0.786l-8.42,4.501
						C257.691,472.555,257.598,472.576,257.505,472.576z"/>
				</g>
				<g>
					<path fill="#5893D4" d="M273.489,481.947c-0.093,0-0.189-0.021-0.276-0.071c-0.282-0.153-0.387-0.506-0.232-0.786l5.797-10.652
						c0.152-0.281,0.506-0.39,0.787-0.231c0.282,0.152,0.386,0.506,0.232,0.785L274,481.643
						C273.896,481.836,273.696,481.947,273.489,481.947z"/>
				</g>
				<g>
					<path fill="#5893D4" d="M262.293,466.662c-0.265,0-0.503-0.182-0.566-0.448l-1.219-5.276c-0.073-0.311,0.123-0.625,0.435-0.695
						c0.312-0.069,0.625,0.121,0.698,0.435l1.219,5.273c0.073,0.313-0.123,0.625-0.435,0.699
						C262.382,466.657,262.337,466.662,262.293,466.662z"/>
				</g>
				<g>
					<path fill="#5893D4" d="M299.319,480.628c-0.04,0-0.08-0.003-0.119-0.011c-0.315-0.065-0.516-0.374-0.45-0.688l1.353-6.47
						c0.065-0.316,0.378-0.518,0.687-0.451c0.314,0.065,0.516,0.374,0.45,0.688l-1.353,6.47
						C299.829,480.441,299.588,480.628,299.319,480.628z"/>
				</g>
				<g>
					<path fill="#5893D4" d="M242.848,464.402c-0.217,0-0.424-0.121-0.525-0.329c-0.139-0.29-0.017-0.639,0.273-0.778l6.624-3.183
						c0.29-0.14,0.637-0.019,0.776,0.271s0.018,0.639-0.273,0.775l-6.623,3.186C243.018,464.383,242.932,464.402,242.848,464.402z"
						/>
				</g>
				<g>
					<path fill="#5893D4" d="M213.281,432.039c-0.023,0-0.045,0-0.068-0.002c-0.318-0.037-0.546-0.327-0.51-0.646l0.501-4.324
						c0.038-0.316,0.328-0.54,0.646-0.509c0.318,0.037,0.546,0.324,0.51,0.646l-0.501,4.321
						C213.822,431.823,213.571,432.039,213.281,432.039z"/>
				</g>
				<g>
					<path fill="#5893D4" d="M203.996,425.023c-0.3,0-0.555-0.229-0.58-0.535c-0.025-0.319,0.214-0.599,0.533-0.625l3.981-0.316
						c0.322-0.026,0.6,0.211,0.625,0.532c0.026,0.319-0.213,0.599-0.533,0.625l-3.981,0.319
						C204.026,425.023,204.01,425.023,203.996,425.023z"/>
				</g>
			</g>
			<g>
				<g>
					<path fill="#5893D4" d="M483.812,492.86c-0.196,0-0.385-0.098-0.495-0.276c-0.169-0.271-0.083-0.631,0.188-0.799
						c0.045-0.029,4.652-2.9,15.875-12.082c43.124-35.273,80.645-99.367,56.618-173.462c-0.099-0.306,0.069-0.633,0.375-0.732
						c0.305-0.097,0.634,0.069,0.731,0.374c24.205,74.65-13.567,139.203-56.99,174.72c-11.302,9.244-15.813,12.058-16.001,12.171
						C484.022,492.832,483.917,492.86,483.812,492.86z"/>
				</g>
				<g>
					<path fill="#5893D4" d="M509.359,489.272c-6.729,0-12.802-3.727-15.848-9.725c-2.147-4.227-2.521-9.036-1.048-13.545
						c1.47-4.509,4.607-8.174,8.836-10.32c2.126-1.078,4.4-1.711,6.759-1.877l0.181-0.014c1.221-0.084,2.739-0.189,3.284-1.049
						c0.392-0.62,0.31-1.65-0.244-3.066c-4.656-11.897,1.048-25.962,12.984-32.023c2.568-1.305,5.435-2.173,8.761-2.655
						c1.338-0.192,2.21-0.661,2.589-1.392c0.597-1.155-0.022-2.858-0.646-4.087c-2.915-5.738-3.421-12.269-1.424-18.389
						c1.997-6.117,6.257-11.093,11.995-14.007c0.595-0.3,1.256-0.599,2.022-0.909c1.316-0.535,2.135-1.324,2.372-2.283
						c0.211-0.854-0.062-1.838-0.731-2.632c-0.969-1.155-1.805-2.415-2.481-3.749c-4.32-8.509-1.968-18.808,5.593-24.487
						c0.692-0.52,1.051-1.216,1.013-1.957c-0.055-0.983-0.773-1.959-1.973-2.673c-1.801-1.071-3.289-2.851-4.687-5.604
						c-3.095-6.096-2.305-13.354,1.919-17.647c0.795-0.81,1.141-1.635,1.028-2.455c-0.133-0.951-0.871-1.689-1.517-2.059
						c-2.055-1.179-3.705-2.917-4.777-5.03c-3.033-5.976-0.642-13.305,5.333-16.337c1.724-0.875,3.571-1.319,5.492-1.319
						c4.608,0,8.764,2.55,10.845,6.654c1.566,3.083,2.414,7.539,0.097,10.801c-0.663,0.931-0.884,1.804-0.655,2.592
						c0.256,0.881,1.11,1.692,2.283,2.173c4.063,1.653,7.156,4.39,8.944,7.907c2.845,5.601,2.264,12.318-1.48,17.115
						c-1.32,1.692-1.875,3.059-1.698,4.174c0.148,0.928,0.814,1.764,2.095,2.626c3.209,2.159,5.606,4.77,7.13,7.765
						c4.88,9.606,1.021,21.435-8.603,26.373c-1.035,0.532-1.611,1.182-1.713,1.928c-0.116,0.856,0.405,1.911,1.393,2.818
						c2.116,1.936,3.853,4.224,5.159,6.8c2.916,5.74,3.422,12.271,1.426,18.389c-1.997,6.117-6.258,11.093-11.997,14.006
						c-2.536,1.29-4.842,2.041-7.047,2.297c-1.318,0.155-2.202,0.641-2.56,1.403c-0.371,0.793-0.185,1.925,0.486,2.955
						c0.514,0.783,0.995,1.611,1.425,2.46c3.188,6.273,3.741,13.411,1.559,20.098c-2.182,6.687-6.837,12.121-13.108,15.306
						c-4.843,2.458-10.344,3.373-15.53,2.587c-0.429-0.066-0.839-0.101-1.219-0.101c-3.357,0-4.189,2.629-4.295,4.836
						c-0.332,6.729-3.956,12.487-9.697,15.404C514.862,488.623,512.164,489.272,509.359,489.272z M554.144,289.142
						c-1.736,0-3.407,0.4-4.968,1.193c-5.401,2.742-7.566,9.37-4.822,14.775c0.969,1.911,2.462,3.483,4.318,4.548
						c1.147,0.657,1.929,1.746,2.09,2.909c0.113,0.822-0.027,2.085-1.349,3.43c-3.88,3.942-4.583,10.65-1.713,16.306
						c1.294,2.547,2.644,4.177,4.244,5.131c1.54,0.915,2.465,2.23,2.538,3.61c0.062,1.139-0.462,2.188-1.473,2.947
						c-7.109,5.342-9.318,15.029-5.254,23.034c0.637,1.256,1.421,2.442,2.333,3.525c0.922,1.098,1.276,2.429,0.972,3.66
						c-0.229,0.928-0.949,2.22-3.062,3.08c-0.735,0.3-1.368,0.585-1.933,0.872c-5.462,2.771-9.517,7.507-11.417,13.331
						c-1.901,5.822-1.42,12.037,1.355,17.5c1.086,2.139,1.303,3.871,0.64,5.147c-0.562,1.083-1.725,1.759-3.454,2.009
						c-3.2,0.462-5.947,1.292-8.402,2.539c-11.407,5.793-16.868,19.217-12.428,30.565c0.706,1.803,0.754,3.147,0.145,4.11
						c-0.859,1.357-2.781,1.489-4.187,1.587l-0.18,0.014c-2.203,0.155-4.328,0.746-6.316,1.753
						c-3.949,2.007-6.882,5.432-8.257,9.646c-1.374,4.214-1.025,8.709,0.98,12.659c2.846,5.603,8.521,9.086,14.812,9.086
						c2.619,0,5.14-0.606,7.492-1.801c5.365-2.724,8.752-8.116,9.062-14.423c0.204-4.279,2.721-6.455,6.849-5.83
						c4.948,0.754,10.201-0.124,14.83-2.474c5.993-3.042,10.442-8.239,12.528-14.631c2.087-6.392,1.557-13.215-1.488-19.208
						c-0.411-0.812-0.87-1.604-1.36-2.353c-0.904-1.384-1.117-2.911-0.567-4.084c0.373-0.799,1.281-1.807,3.479-2.062
						c2.065-0.243,4.243-0.955,6.656-2.181c5.462-2.771,9.517-7.507,11.418-13.329c1.9-5.821,1.417-12.039-1.356-17.503
						c-1.243-2.449-2.896-4.627-4.908-6.47c-1.287-1.182-1.929-2.579-1.76-3.829c0.155-1.149,0.941-2.091,2.336-2.808
						c9.055-4.646,12.686-15.775,8.096-24.812c-1.432-2.816-3.699-5.281-6.742-7.325c-1.567-1.055-2.392-2.138-2.593-3.412
						c-0.232-1.45,0.399-3.108,1.929-5.07c3.467-4.442,4.001-10.673,1.359-15.873c-2.095-4.126-5.695-6.277-8.347-7.358
						c-1.521-0.62-2.602-1.688-2.96-2.925c-0.229-0.788-0.272-2.053,0.824-3.591c2.019-2.837,1.229-6.819-0.186-9.599
						C562.068,291.448,558.31,289.142,554.144,289.142z"/>
				</g>
				<g>
					<path fill="#5893D4" d="M561.474,327.379c-0.173,0-0.345-0.076-0.459-0.222c-0.198-0.253-0.154-0.616,0.098-0.814l7.546-5.943
						c0.252-0.2,0.617-0.155,0.816,0.098c0.197,0.251,0.154,0.617-0.098,0.814l-7.547,5.943
						C561.725,327.34,561.599,327.379,561.474,327.379z"/>
				</g>
				<g>
					<path fill="#5893D4" d="M562.773,333.413c-0.112,0-0.225-0.032-0.324-0.098l-10.154-6.818c-0.265-0.18-0.338-0.541-0.158-0.808
						c0.181-0.266,0.54-0.337,0.809-0.158l10.152,6.816c0.266,0.18,0.337,0.541,0.158,0.81
						C563.144,333.323,562.96,333.413,562.773,333.413z"/>
				</g>
				<g>
					<path fill="#5893D4" d="M560.02,319.669c-0.108,0-0.217-0.031-0.312-0.092l-5.217-3.341c-0.271-0.174-0.35-0.532-0.177-0.802
						c0.174-0.271,0.532-0.354,0.803-0.177l5.217,3.341c0.271,0.174,0.35,0.533,0.177,0.802
						C560.397,319.572,560.21,319.669,560.02,319.669z"/>
				</g>
				<g>
					<path fill="#5893D4" d="M556.709,306.906c-0.229,0-0.448-0.138-0.539-0.364l-3.998-9.946c-0.119-0.299,0.025-0.636,0.323-0.756
						c0.298-0.118,0.637,0.024,0.756,0.322l3.997,9.947c0.12,0.298-0.023,0.636-0.322,0.756
						C556.854,306.892,556.78,306.906,556.709,306.906z"/>
				</g>
				<g>
					<path fill="#5893D4" d="M556.687,307.193c-0.068,0-0.14-0.011-0.207-0.038c-0.301-0.115-0.45-0.451-0.335-0.75l2.648-6.903
						c0.113-0.301,0.449-0.451,0.75-0.335c0.301,0.115,0.45,0.451,0.335,0.752l-2.648,6.901
						C557.14,307.052,556.92,307.193,556.687,307.193z"/>
				</g>
				<g>
					<path fill="#5893D4" d="M555.256,303.818c-0.106,0-0.215-0.029-0.312-0.09l-5.705-3.631c-0.272-0.171-0.351-0.531-0.179-0.801
						c0.173-0.27,0.533-0.35,0.802-0.179l5.707,3.63c0.271,0.173,0.351,0.532,0.179,0.803
						C555.637,303.723,555.448,303.818,555.256,303.818z"/>
				</g>
				<g>
					<path fill="#5893D4" d="M563.931,356.903c-0.193,0-0.384-0.098-0.494-0.271c-0.17-0.274-0.086-0.63,0.186-0.802l9.891-6.188
						c0.271-0.169,0.63-0.087,0.803,0.185c0.17,0.274,0.086,0.631-0.186,0.802l-9.891,6.188
						C564.143,356.874,564.036,356.903,563.931,356.903z"/>
				</g>
				<g>
					<path fill="#5893D4" d="M563.973,363.4c-0.135,0-0.268-0.045-0.377-0.14l-10.641-9.031c-0.244-0.205-0.273-0.572-0.065-0.817
						s0.574-0.273,0.818-0.065l10.642,9.028c0.244,0.208,0.274,0.574,0.066,0.819C564.301,363.329,564.138,363.4,563.973,363.4z"/>
				</g>
				<g>
					<path fill="#5893D4" d="M562.909,371.389c-0.208,0-0.409-0.113-0.515-0.309c-0.15-0.285-0.043-0.636,0.241-0.786l9.897-5.255
						c0.284-0.152,0.635-0.045,0.787,0.24c0.15,0.285,0.043,0.636-0.24,0.786l-9.898,5.255
						C563.094,371.366,563.001,371.389,562.909,371.389z"/>
				</g>
				<g>
					<path fill="#5893D4" d="M559.14,391.921c-0.157,0-0.313-0.063-0.429-0.188l-7.287-7.939c-0.218-0.234-0.202-0.604,0.034-0.819
						c0.235-0.219,0.604-0.203,0.821,0.034l7.289,7.939c0.218,0.234,0.2,0.604-0.036,0.819
						C559.422,391.874,559.279,391.921,559.14,391.921z"/>
				</g>
				<g>
					<path fill="#5893D4" d="M554.129,406.338c-0.136,0-0.27-0.044-0.379-0.14l-12.785-10.969c-0.245-0.208-0.271-0.574-0.062-0.817
						c0.209-0.245,0.575-0.271,0.818-0.063l12.787,10.97c0.243,0.208,0.27,0.574,0.062,0.817
						C554.454,406.27,554.292,406.338,554.129,406.338z"/>
				</g>
				<g>
					<path fill="#5893D4" d="M556.139,401.128c-0.247,0-0.477-0.158-0.555-0.406c-0.096-0.308,0.074-0.633,0.381-0.729l15.653-4.921
						c0.309-0.095,0.633,0.074,0.729,0.38c0.096,0.309-0.075,0.633-0.381,0.73l-15.652,4.92
						C556.255,401.121,556.196,401.128,556.139,401.128z"/>
				</g>
				<g>
					<path fill="#5893D4" d="M539.84,435.941c-0.27,0-0.51-0.189-0.567-0.464c-0.066-0.313,0.136-0.619,0.449-0.686l13.251-2.773
						c0.307-0.066,0.621,0.137,0.688,0.45c0.066,0.314-0.137,0.62-0.449,0.688l-13.252,2.771
						C539.919,435.939,539.88,435.941,539.84,435.941z"/>
				</g>
				<g>
					<path fill="#5893D4" d="M544.248,457.913c-0.071,0-0.143-0.013-0.214-0.039l-16.007-6.307
						c-0.298-0.116-0.445-0.454-0.328-0.755c0.116-0.298,0.455-0.445,0.754-0.326l16.007,6.307c0.298,0.116,0.445,0.453,0.328,0.751
						C544.698,457.773,544.479,457.913,544.248,457.913z"/>
				</g>
				<g>
					<path fill="#5893D4" d="M534.042,443.772c-0.191,0-0.377-0.092-0.489-0.264l-8.623-13.315
						c-0.174-0.269-0.098-0.627,0.171-0.801c0.271-0.177,0.629-0.101,0.804,0.171l8.624,13.312c0.175,0.27,0.097,0.631-0.173,0.805
						C534.26,443.744,534.15,443.772,534.042,443.772z"/>
				</g>
				<g>
					<path fill="#5893D4" d="M542.497,431.097c-0.213,0-0.417-0.115-0.519-0.318l-3.477-6.845c-0.145-0.288-0.031-0.636,0.256-0.781
						c0.287-0.147,0.637-0.031,0.78,0.254l3.477,6.847c0.146,0.285,0.032,0.636-0.254,0.781
						C542.675,431.08,542.586,431.097,542.497,431.097z"/>
				</g>
				<g>
					<path fill="#5893D4" d="M511.284,470.456c-0.192,0-0.381-0.095-0.491-0.269l-5.812-9.154c-0.172-0.272-0.091-0.631,0.178-0.802
						c0.271-0.172,0.63-0.093,0.802,0.177l5.813,9.154c0.172,0.271,0.093,0.63-0.178,0.802
						C511.5,470.427,511.392,470.456,511.284,470.456z"/>
				</g>
				<g>
					<path fill="#5893D4" d="M503.809,477.277c-0.154,0-0.309-0.063-0.424-0.185l-4.578-4.894c-0.219-0.234-0.206-0.602,0.028-0.82
						c0.235-0.219,0.603-0.208,0.82,0.029l4.579,4.892c0.22,0.234,0.207,0.601-0.029,0.819
						C504.093,477.224,503.952,477.277,503.809,477.277z"/>
				</g>
				<g>
					<path fill="#5893D4" d="M514.964,479.993c-0.126,0-0.253-0.042-0.359-0.124l-7.37-5.803c-0.252-0.201-0.295-0.564-0.096-0.817
						c0.197-0.251,0.564-0.293,0.814-0.096l7.369,5.804c0.254,0.198,0.296,0.564,0.098,0.814
						C515.307,479.917,515.136,479.993,514.964,479.993z"/>
				</g>
				<g>
					<path fill="#5893D4" d="M519.541,469.757c-0.087,0-0.172-0.019-0.255-0.061l-4.657-2.294c-0.287-0.14-0.405-0.488-0.265-0.778
						c0.142-0.287,0.489-0.408,0.779-0.264l4.656,2.294c0.287,0.14,0.406,0.488,0.264,0.778
						C519.963,469.638,519.758,469.757,519.541,469.757z"/>
				</g>
				<g>
					<path fill="#5893D4" d="M525.849,454.683c-0.195,0-0.387-0.101-0.496-0.277l-4.031-6.565c-0.169-0.273-0.083-0.633,0.189-0.799
						c0.274-0.168,0.632-0.084,0.8,0.19l4.032,6.565c0.169,0.274,0.082,0.633-0.189,0.799
						C526.059,454.657,525.953,454.683,525.849,454.683z"/>
				</g>
				<g>
					<path fill="#5893D4" d="M551.481,413.502c-0.26,0-0.496-0.177-0.563-0.44c-0.078-0.308,0.11-0.627,0.421-0.703l10.101-2.568
						c0.308-0.079,0.626,0.107,0.705,0.422c0.079,0.309-0.109,0.627-0.421,0.704l-10.1,2.567
						C551.578,413.498,551.529,413.502,551.481,413.502z"/>
				</g>
				<g>
					<path fill="#5893D4" d="M564.248,348.827c-0.144,0-0.287-0.053-0.399-0.158l-4.48-4.242c-0.233-0.222-0.243-0.588-0.022-0.823
						c0.22-0.231,0.589-0.242,0.819-0.021l4.481,4.242c0.233,0.222,0.242,0.588,0.022,0.82
						C564.556,348.766,564.402,348.827,564.248,348.827z"/>
				</g>
				<g>
					<path fill="#5893D4" d="M563.332,336.025c-0.182,0-0.361-0.087-0.475-0.247c-0.186-0.262-0.124-0.622,0.137-0.81l4.621-3.275
						c0.262-0.187,0.624-0.126,0.81,0.138c0.187,0.261,0.124,0.622-0.137,0.81l-4.621,3.277
						C563.566,335.989,563.449,336.025,563.332,336.025z"/>
				</g>
			</g>
			<g>
				<g>
					<path fill="#5893D4" d="M554.057,460.062c-0.211,0-0.416-0.113-0.519-0.316c-0.146-0.285-0.033-0.636,0.252-0.783
						c33.416-17.162,54.568-46.042,59.56-81.321c0.043-0.316,0.343-0.536,0.655-0.493c0.318,0.045,0.539,0.337,0.494,0.653
						c-5.043,35.665-26.415,64.855-60.179,82.197C554.236,460.041,554.145,460.062,554.057,460.062z"/>
				</g>
				<g>
					<path fill="#5893D4" d="M532.848,480.678c-2.828,0-5.598-0.954-7.822-2.694c-0.251-0.198-0.296-0.564-0.097-0.814
						c0.197-0.254,0.562-0.299,0.814-0.101c2.067,1.619,4.671,2.5,7.285,2.447c4.179-0.066,7.938-2.405,10.054-6.252
						c0.762-1.385,1.764-2.26,2.896-2.526c1.089-0.261,2.267,0.04,3.494,0.889c2.913,2.012,6.394,3.046,10.06,2.982
						c9.689-0.155,17.447-8.169,17.296-17.861c-0.012-0.63-0.057-1.269-0.133-1.891c-0.154-1.213,0.205-2.305,0.962-2.919
						c0.519-0.416,1.46-0.802,3.009-0.258c1.364,0.477,2.956,0.693,4.83,0.664c8.821-0.143,15.884-7.436,15.743-16.255
						c-0.032-1.917-0.401-3.789-1.096-5.559c-0.472-1.197-0.443-2.339,0.083-3.127c0.333-0.501,1.036-1.103,2.486-1.134
						c7.081-0.143,12.75-5.999,12.637-13.05c-0.033-2.193-0.701-4.43-1.984-6.642c-0.692-1.197-0.885-2.181-0.605-3.098
						c0.318-1.039,1.261-1.931,2.88-2.722c3.512-1.719,5.74-5.439,5.674-9.481c-0.05-3.212-1.642-5.653-2.968-7.132
						c-0.808-0.905-1.176-1.968-1.012-2.914c0.104-0.606,0.487-1.472,1.716-2.141c2.089-1.137,2.798-3.84,2.765-5.988
						c-0.065-4.174-3.467-7.483-7.699-7.454c-4.177,0.068-7.52,3.521-7.452,7.699c0.022,1.479,0.472,2.905,1.296,4.124
						c0.554,0.814,0.721,1.801,0.446,2.637c-0.194,0.593-0.702,1.397-2.02,1.866c-3.611,1.276-6.084,5.242-6.015,9.638
						c0.032,1.98,0.373,3.401,1.076,4.472c0.724,1.107,0.907,2.286,0.505,3.235c-0.338,0.796-1.037,1.334-1.971,1.514
						c-6.072,1.173-10.409,6.555-10.312,12.801c0.018,0.986,0.146,1.97,0.383,2.919c0.258,1.034,0.06,2.044-0.55,2.774
						c-0.459,0.548-1.344,1.17-3.036,1.064c-0.49-0.034-0.983-0.055-1.484-0.047c-8.816,0.145-15.876,7.438-15.734,16.258
						c0.024,1.751-0.397,2.961-1.261,3.602c-0.737,0.546-1.733,0.622-2.962,0.229c-1.16-0.372-2.248-0.63-3.325-0.791
						c-0.317-0.047-0.537-0.343-0.489-0.662c0.048-0.316,0.335-0.537,0.662-0.487c1.139,0.169,2.286,0.443,3.505,0.833
						c0.854,0.271,1.498,0.253,1.917-0.058c0.527-0.391,0.807-1.329,0.787-2.647c-0.151-9.461,7.423-17.284,16.881-17.439
						c0.525-0.005,1.06,0.014,1.579,0.05c0.938,0.063,1.655-0.16,2.064-0.65c0.362-0.433,0.479-1.087,0.312-1.746
						c-0.257-1.033-0.398-2.104-0.417-3.18c-0.106-6.811,4.627-12.683,11.255-13.962c0.55-0.105,0.938-0.39,1.121-0.825
						c0.249-0.585,0.102-1.368-0.406-2.144c-0.829-1.266-1.232-2.882-1.267-5.091c-0.078-4.892,2.713-9.311,6.788-10.753
						c0.7-0.248,1.139-0.63,1.303-1.131c0.192-0.586-0.03-1.224-0.304-1.625c-0.953-1.407-1.47-3.05-1.498-4.756
						c-0.076-4.82,3.78-8.805,8.599-8.881c4.775-0.053,8.803,3.778,8.881,8.599c0.035,2.488-0.829,5.643-3.371,7.023
						c-0.659,0.361-1.04,0.805-1.129,1.321c-0.102,0.586,0.173,1.311,0.733,1.94c2.091,2.337,3.221,5.062,3.264,7.89
						c0.071,4.487-2.411,8.627-6.325,10.541c-1.315,0.644-2.061,1.303-2.279,2.021c-0.178,0.585-0.02,1.278,0.5,2.178
						c1.384,2.386,2.104,4.81,2.141,7.206c0.123,7.686-6.057,14.069-13.776,14.23c-0.763,0.013-1.28,0.222-1.542,0.614
						c-0.307,0.461-0.296,1.229,0.03,2.057c0.746,1.901,1.143,3.907,1.178,5.964c0.151,9.464-7.425,17.284-16.887,17.437
						c-2.025,0.037-3.739-0.202-5.234-0.729c-0.574-0.201-1.371-0.352-1.892,0.068c-0.434,0.354-0.642,1.067-0.539,1.869
						c0.08,0.664,0.129,1.342,0.143,2.015c0.162,10.336-8.109,18.876-18.44,19.045c-3.906,0.029-7.624-1.039-10.738-3.188
						c-0.946-0.654-1.811-0.895-2.566-0.715c-1.015,0.237-1.727,1.194-2.145,1.954c-2.32,4.219-6.452,6.778-11.055,6.853
						C532.98,480.678,532.914,480.678,532.848,480.678z"/>
				</g>
				<g>
					<path fill="#5893D4" d="M610.628,392.968c-0.266,0-0.507-0.188-0.566-0.459c-0.067-0.313,0.132-0.622,0.445-0.691l6.618-1.437
						c0.315-0.061,0.622,0.132,0.691,0.445c0.066,0.314-0.131,0.622-0.446,0.691l-6.616,1.437
						C610.711,392.962,610.669,392.968,610.628,392.968z"/>
				</g>
				<g>
					<path fill="#5893D4" d="M609.588,397.192c-0.2,0-0.396-0.105-0.504-0.29l-4.326-7.462c-0.161-0.279-0.066-0.633,0.212-0.794
						c0.278-0.16,0.633-0.065,0.794,0.211l4.327,7.462c0.16,0.28,0.065,0.633-0.213,0.794
						C609.787,397.166,609.688,397.192,609.588,397.192z"/>
				</g>
				<g>
					<path fill="#5893D4" d="M612.09,387.628c-0.196,0-0.387-0.1-0.495-0.279l-2.274-3.729c-0.167-0.274-0.08-0.633,0.194-0.799
						c0.272-0.169,0.633-0.082,0.8,0.192l2.273,3.731c0.167,0.273,0.081,0.633-0.194,0.799
						C612.299,387.602,612.193,387.628,612.09,387.628z"/>
				</g>
				<g>
					<path fill="#5893D4" d="M613.938,378.519c-0.013,0-0.027,0-0.043,0c-0.319-0.024-0.562-0.301-0.537-0.623l0.546-7.538
						c0.022-0.319,0.289-0.574,0.621-0.535c0.319,0.021,0.562,0.301,0.536,0.62l-0.546,7.538
						C614.496,378.287,614.242,378.519,613.938,378.519z"/>
				</g>
				<g>
					<path fill="#5893D4" d="M613.837,378.693c-0.154,0-0.31-0.061-0.424-0.185c-0.22-0.234-0.207-0.602,0.027-0.82l3.812-3.557
						c0.233-0.216,0.603-0.206,0.821,0.029c0.219,0.234,0.205,0.601-0.029,0.819l-3.812,3.558
						C614.122,378.64,613.979,378.693,613.837,378.693z"/>
				</g>
				<g>
					<path fill="#5893D4" d="M613.977,376.114c-0.196,0-0.386-0.098-0.497-0.276l-2.49-4.063c-0.167-0.274-0.083-0.633,0.191-0.799
						c0.275-0.169,0.633-0.082,0.799,0.189l2.492,4.066c0.167,0.274,0.081,0.63-0.192,0.799
						C614.186,376.087,614.08,376.114,613.977,376.114z"/>
				</g>
				<g>
					<path fill="#5893D4" d="M603.055,412.435c-0.296,0-0.546-0.225-0.579-0.522c-0.033-0.318,0.198-0.604,0.519-0.638l8.182-0.862
						c0.313-0.026,0.604,0.197,0.638,0.517c0.034,0.319-0.196,0.604-0.517,0.639l-8.182,0.861
						C603.094,412.432,603.074,412.435,603.055,412.435z"/>
				</g>
				<g>
					<path fill="#5893D4" d="M601.074,416.564c-0.225,0-0.438-0.129-0.534-0.348l-3.947-9.01c-0.128-0.296,0.006-0.639,0.3-0.765
						c0.291-0.127,0.637,0.005,0.766,0.298l3.947,9.01c0.128,0.295-0.005,0.638-0.299,0.767
						C601.229,416.548,601.152,416.564,601.074,416.564z"/>
				</g>
				<g>
					<path fill="#5893D4" d="M597.929,421.302c-0.312,0-0.571-0.248-0.581-0.562c-0.011-0.322,0.24-0.591,0.56-0.602l7.899-0.276
						c0.312-0.021,0.591,0.239,0.601,0.562c0.012,0.321-0.24,0.591-0.561,0.601l-7.898,0.274
						C597.943,421.302,597.937,421.302,597.929,421.302z"/>
				</g>
				<g>
					<path fill="#5893D4" d="M589.19,433.146c-0.251,0-0.481-0.163-0.558-0.414l-2.163-7.282c-0.093-0.309,0.083-0.63,0.392-0.723
						c0.309-0.09,0.63,0.085,0.722,0.394l2.164,7.279c0.092,0.309-0.083,0.631-0.392,0.723
						C589.301,433.138,589.246,433.146,589.19,433.146z"/>
				</g>
				<g>
					<path fill="#5893D4" d="M581.56,440.738c-0.226,0-0.438-0.132-0.534-0.351l-4.711-10.903c-0.128-0.293,0.008-0.636,0.303-0.762
						c0.294-0.132,0.637,0.008,0.764,0.301l4.712,10.902c0.128,0.293-0.009,0.636-0.302,0.762
						C581.714,440.721,581.637,440.738,581.56,440.738z"/>
				</g>
				<g>
					<path fill="#5893D4" d="M595.885,439.772c-0.027,0-0.058,0-0.085-0.005l-11.443-1.717c-0.316-0.047-0.536-0.345-0.488-0.661
						c0.046-0.319,0.342-0.538,0.66-0.491l11.443,1.72c0.316,0.045,0.536,0.343,0.488,0.659
						C596.416,439.567,596.167,439.772,595.885,439.772z"/>
				</g>
				<g>
					<path fill="#5893D4" d="M572.606,457.417c-0.046,0-0.093-0.006-0.142-0.016l-9.257-2.339c-0.31-0.077-0.498-0.394-0.42-0.707
						c0.077-0.311,0.394-0.495,0.705-0.419l9.256,2.336c0.31,0.079,0.5,0.393,0.421,0.707
						C573.104,457.244,572.866,457.417,572.606,457.417z"/>
				</g>
				<g>
					<path fill="#5893D4" d="M559.351,470.367c-0.157,0-0.313-0.063-0.429-0.19l-7.347-8.019c-0.217-0.234-0.2-0.604,0.035-0.819
						c0.236-0.217,0.604-0.2,0.821,0.034l7.346,8.019c0.218,0.237,0.202,0.604-0.034,0.819
						C559.632,470.316,559.49,470.367,559.351,470.367z"/>
				</g>
				<g>
					<path fill="#5893D4" d="M566.53,452.834c-0.316,0-0.576-0.253-0.581-0.572l-0.086-5.413c-0.003-0.321,0.252-0.585,0.573-0.593
						c0.003,0,0.007,0,0.01,0c0.316,0,0.576,0.256,0.581,0.574l0.086,5.413c0.004,0.322-0.252,0.586-0.572,0.591
						C566.538,452.834,566.533,452.834,566.53,452.834z"/>
				</g>
				<g>
					<path fill="#5893D4" d="M533.97,475.313c-0.216,0-0.425-0.121-0.524-0.327l-2.877-5.956c-0.14-0.288-0.019-0.636,0.271-0.775
						c0.291-0.143,0.637-0.019,0.776,0.269l2.877,5.957c0.14,0.287,0.018,0.635-0.271,0.774
						C534.141,475.297,534.054,475.313,533.97,475.313z"/>
				</g>
				<g>
					<path fill="#5893D4" d="M584.861,445.951c-0.039,0-0.079-0.003-0.119-0.011l-7.197-1.495c-0.313-0.063-0.515-0.372-0.45-0.686
						s0.374-0.52,0.687-0.451l7.197,1.492c0.314,0.066,0.516,0.372,0.451,0.688C585.372,445.763,585.13,445.951,584.861,445.951z"/>
				</g>
				<g>
					<path fill="#5893D4" d="M605.756,407.415c-0.236,0-0.456-0.143-0.545-0.377l-1.526-4.074c-0.112-0.3,0.041-0.635,0.34-0.748
						c0.3-0.116,0.636,0.039,0.749,0.34l1.526,4.073c0.112,0.301-0.039,0.636-0.34,0.749
						C605.892,407.404,605.823,407.415,605.756,407.415z"/>
				</g>
				<g>
					<path fill="#5893D4" d="M609.133,399.019c-0.279,0-0.527-0.203-0.571-0.485c-0.053-0.318,0.16-0.616,0.477-0.669l3.939-0.649
						c0.321-0.053,0.617,0.161,0.669,0.478c0.051,0.316-0.162,0.617-0.478,0.667l-3.94,0.651
						C609.196,399.017,609.164,399.019,609.133,399.019z"/>
				</g>
			</g>
			<g>
				<g>
					<path fill="#FFB48E" d="M237.265,307.16c8.654-15.125,29.722-34.485,39.175-62.531c3.961-11.756,3.328-33.892,5.244-43.704
						c16.18-82.932,89.568-105.289,159.88-92.979c85.284,14.938,121.888,91.278,117.67,149.188
						c-3.991,54.783-43.951,122.449-66.278,146.583c-2.05,4.24,7.649,99.623,7.649,99.623s-22.57,13.864-90.409,13.864
						c-64.359,0-84.43-14.579-84.43-14.579c5.006-19.264,7.741-53.617,8.18-79.568c-22.075,5.422-40.967,5.569-54.439-3.726
						c-10.541-7.274-13.016-11.208-9.229-94.679C270.273,324.651,230.482,319.013,237.265,307.16z"/>
				</g>
				<g opacity="0.2">
					<path fill="#5893D4" d="M410.777,400.717c25.85,23.211-40.913,83.483-85.014,101.909c4.949-19.04,8.18-54.849,8.18-79.568
						C383.761,410.31,403.001,393.738,410.777,400.717z"/>
				</g>
				<g opacity="0.2">
					<path fill="#5893D4" d="M236.517,310.036c1.046,3.772,18.731,6.676,32.071,6.676c13.403,0,14.405,2.272,14.405,4.873
						c0,2.6-5.225,3.066-12.717,3.066C270.273,324.651,236.962,319.925,236.517,310.036z"/>
				</g>
				<g>
					<path fill="#FFB48E" d="M438.42,263.054c11.059-12.164,64.132-22.669,43.678,37.595
						c-20.457,60.262-54.181,46.994-54.181,46.994"/>
				</g>
			</g>
			<g>
				<g>
					<g>
						<g>
							<polygon fill="#1E56A0" points="588.599,365.525 577.137,373.823 547.016,332.326 558.477,324.029 							"/>
						</g>
						<g opacity="0.2">
							<path fill="#FFFFFF" d="M570.319,196.511c29.69,40.915,20.563,98.124-20.389,127.786
								c-40.954,29.663-98.218,20.537-127.913-20.371c-29.695-40.916-20.572-98.126,20.384-127.786
								C483.352,146.479,540.626,155.602,570.319,196.511z"/>
						</g>
						<g>
							<g opacity="0.5">
								<path fill="#FFFFFF" d="M562.076,202.482c-23.474-32.338-66.308-42.256-101.104-25.536
									c21.106-1.293,50.011,16.654,71.838,46.734c21.827,30.075,29.916,63.088,22.138,82.727
									C581.675,278.56,585.543,234.819,562.076,202.482z"/>
							</g>
						</g>
						<g>
							<polygon fill="#1E56A0" points="634.895,420.772 615.32,434.95 573.077,376.76 592.66,362.585 							"/>
						</g>
					</g>
					<g>
						<polygon fill="#1F3C88" points="577.137,373.823 547.016,332.326 558.477,324.029 						"/>
					</g>
					<g>
						<path fill="#070D59" d="M559.116,325.729c-1.573,1.313-3.119,2.642-4.805,3.862c-2.051,1.487-4.172,2.806-6.302,4.098
							l4.437,6.117c2.124-1.308,4.247-2.61,6.304-4.095c1.104-0.804,2.093-1.703,3.155-2.536L559.116,325.729z"/>
					</g>
					<g>
						<polygon fill="#1F3C88" points="615.32,434.95 573.077,376.76 592.66,362.585 						"/>
					</g>
					<g>
						<path fill="#1F3C88" d="M437.955,170.025c-44.335,32.107-54.211,94.046-22.064,138.331
							c32.146,44.291,94.145,54.166,138.479,22.059c44.332-32.114,54.216-94.05,22.064-138.339
							C544.291,147.786,482.289,137.912,437.955,170.025z M549.931,324.297c-40.954,29.663-98.218,20.537-127.913-20.371
							c-29.695-40.916-20.572-98.126,20.384-127.786c40.95-29.66,98.226-20.538,127.919,20.373
							C600.01,237.426,590.885,294.635,549.931,324.297z"/>
					</g>
				</g>
				<g opacity="0.5">
					<circle fill="#FFFFFF" cx="496.163" cy="191.096" r="14.732"/>
				</g>
				<g opacity="0.3">
					<circle fill="#FFFFFF" cx="481.478" cy="300.738" r="23.68"/>
				</g>
			</g>
			<g>
				<g>
					<g>
						<g>
							<g>
								<path fill="#FFB48E" d="M659.268,371.355c0,0-4.092-7.583-2.957-8.67c1.131-1.086-4.27-9.188-4.27-9.188l-9.062,12.103
									c0,0,5.83-1.456,4.337,8.279l6.301,9.439L659.268,371.355z"/>
							</g>
							<g>
								<path fill="#1F3C88" d="M692.415,494.334c0,0-24.351-17.266-30.517-22.218c-6.169-4.959-12.724-30.003-12.724-30.003
									l19.415-7.164l1.635,28.883c7.804,2.893,19.844,14.328,27.522,23.865L692.415,494.334z"/>
							</g>
							<g>
								<path fill="#FFB48E" d="M692.918,493.714c0,0,5.768,3.518,4.528,7.583c-1.247,4.068-4.975,9.519-2.291,11.673l12.692-15.805
									l-10.103-9.468L692.918,493.714z"/>
							</g>
							<g>
								<path fill="#1F3C88" d="M705.048,494.545L705.048,494.545c0,0-3.943,6.971-9.798,12.202
									c-1.039,2.576-1.66,4.965-0.095,6.223l12.692-15.805L705.048,494.545z"/>
							</g>
							<g>
								<g>
									<path fill="#1E56A0" d="M627.607,502.969c0,0,0-29.773,0-38.183c0-8.411,14.49-32.415,14.49-32.415l31.475-0.048
										l-33.562,33.853c2.794,8.391-0.56,24.081-3.358,36.793H627.607L627.607,502.969z"/>
								</g>
								<g>
									<path fill="#FFB48E" d="M628.456,502.969c0,0,0.926,7.119-3.271,8.796c-4.198,1.683-11.194,2.218-11.194,5.875h21.545
										l1.119-14.671H628.456L628.456,502.969z"/>
								</g>
								<g>
									<path fill="#1E56A0" d="M635.849,513.574L635.849,513.574c0,0-8.41,1.371-16.644,0c-2.819,0.86-5.217,1.931-5.217,4.066
										l21.545-0.003L635.849,513.574z"/>
								</g>
								<g>
									<path fill="#E3EBF3" d="M617.686,477.702c0,0,22.725-55.804,23.087-59.632c0.507-5.324-1.285-14.246-0.913-18.982
										c0.515-6.604,6.807-25.604,6.807-25.604c3.037-6.089,8.182-3.71,12.023-5.34c4.227,7.784,16.239,41.12,17.025,69.301
										c0.521,18.592,14.585,28.814,17.769,35.788c0,0-12.664,13.77-38.48,15.288
										C640.998,489.342,617.686,477.702,617.686,477.702z"/>
								</g>
							</g>
							<g>
								<path fill="#FFB48E" d="M617.99,421.049c0,0-8.968,1.387-11.014,1.126c-0.764-0.09-1.43-0.175-1.443-0.335
									c-0.061-0.82,3.843-0.789,3.867-1.023c0.025-0.253-0.584,0.053-2.613,0.135c-2.619,0.103-3.958,0.393-4.022-0.454
									c-0.034-0.416,1.59-0.852,3.214-0.833c1.553,0.016,2.852-0.39,2.852-0.39s-6.838,0.1-6.98-0.831
									c-0.071-0.501,1.686-0.807,4.018-0.712c1.613,0.068,2.947-0.216,2.947-0.216s-5.894-0.67-5.582-1.487
									c0.31-0.814,4.995-0.121,4.995-0.121l3.849-0.105c0.333-0.338-3.559-0.177-3.277-2.289c0.046-0.343,1,0.366,3.042,0.648
									c0.501,0.066,1.864,0.048,3.223,0.488c1.418,0.461,1.888,1.286,3.127,1.342C620.467,416.097,617.99,421.049,617.99,421.049z
									"/>
							</g>
						</g>
						<g>
							<path fill="#E3EBF3" d="M652.51,371.629c3.575-0.037,5.608,3.478,5.773,13.523c0.079,4.92-2.898,18.826-6.323,24.078
								c-10.42,15.979-33.757,13.638-33.757,13.638s-1.65-4.62-0.732-8.153c0,0,17.678-3.527,22.386-10.014
								c3.128-4.306,4.262-18.359,6.99-27.341C648.226,372.816,649.851,371.656,652.51,371.629z"/>
						</g>
						<g>
							<path fill="#E64A4B" d="M654.646,343.166c-2.472-1.477,4.753-10.604,9.988-3.048c5.246,7.554,0.717,11.209-5.368,8.527
								C653.185,345.966,654.646,343.166,654.646,343.166z"/>
						</g>
						<g>
							<path fill="#E64A4B" d="M651.051,357.438l5.116,5.807c0,0,6.709-10.835,4.271-15.119c-2.451-4.282-6.443-7.391-11.41-6.286
								c-4.959,1.1-6.461,2.278-9.079,2.471c-0.996,0.071-4.182,2.764-1.55,5.593C641.54,353.278,646.518,358.614,651.051,357.438z"
								/>
						</g>
						<g>
							<path fill="#FFB48E" d="M639.895,348.645c0,0,0.448,5.911-3.342,6.657c-0.451,0.09,0.266,1.562,2.833,1.72
								c0,0-0.112,0.503-0.023,1.942l3.078-0.796c0,0-0.458,1.928-2.263,2.942c0,0,0.823,4.473,2.198,4.654
								c1.409,0.185,8.097-6.666,8.972-7.758c1.184-1.489,1.9-3.229,0.884-4.677c-1.041-1.485-2.657-0.802-3.086,0.559
								c-0.04,0.129,0.24-2.191-0.434-4.282C648.713,349.607,642.581,351.208,639.895,348.645z"/>
						</g>
					</g>
				</g>
				<g opacity="0.2">
					<path fill="#5893D4" d="M655.584,406.16c2.266-5.849,3.558-19.889,2.764-24.74c-0.268-1.653-0.569-3.049-0.892-4.338
						c0.48,2.025,0.769,4.641,0.827,8.071c0.079,4.92-2.898,18.826-6.323,24.078c-3.009,4.612-7.098,7.631-11.381,9.685
						c-0.271,0.979-0.819,2.605-1.584,4.729C645.001,421.02,651.779,415.968,655.584,406.16z"/>
				</g>
				<g opacity="0.2">
					<path fill="#5893D4" d="M639.868,402.428c0.026,0.981,0.048,0.876,0.142,1.999c2.561-3.881,3.783-14.354,5.738-22.845
						C643.653,388.417,641.984,397.722,639.868,402.428z"/>
				</g>
			</g>
			<g>
				<path fill="#5893D4" d="M265.328,450.438c-0.111,0-0.223-0.031-0.321-0.098c-27.197-18.059-46.532-43.36-57.463-75.204
					c-0.104-0.304,0.057-0.633,0.362-0.738c0.303-0.104,0.633,0.058,0.738,0.361c10.846,31.596,30.027,56.697,57.007,74.613
					c0.267,0.177,0.34,0.538,0.163,0.805C265.703,450.345,265.518,450.438,265.328,450.438z"/>
			</g>
			<g>
				<g>
					<path fill="#5893D4" d="M204.241,376.061c-7.172,0-13.173-5.61-13.663-12.772c-0.25-3.651,0.938-7.182,3.343-9.939
						c2.406-2.759,5.742-4.417,9.393-4.668c7.573-0.511,14.097,5.266,14.607,12.741c0.516,7.536-5.199,14.091-12.737,14.607
						C204.869,376.05,204.553,376.061,204.241,376.061z M204.263,349.813c-0.288,0-0.578,0.011-0.868,0.028
						c-3.343,0.229-6.395,1.746-8.597,4.27c-2.202,2.525-3.289,5.759-3.061,9.1c0.467,6.839,6.424,12.139,13.368,11.659
						c6.898-0.472,12.128-6.471,11.656-13.368C216.315,354.947,210.825,349.813,204.263,349.813z"/>
				</g>
				<g>
					<path fill="#5893D4" d="M204.245,368.546c-3.239,0-5.948-2.533-6.168-5.769c-0.232-3.404,2.348-6.362,5.753-6.598
						c3.436-0.219,6.368,2.376,6.598,5.751c0.231,3.406-2.35,6.365-5.754,6.6C204.53,368.542,204.386,368.546,204.245,368.546z
						 M204.256,357.328c-0.115,0-0.23,0.005-0.347,0.013c-2.765,0.19-4.861,2.595-4.672,5.358c0.187,2.742,2.582,4.867,5.357,4.672
						c2.766-0.188,4.863-2.592,4.673-5.357C209.089,359.384,206.885,357.328,204.256,357.328z"/>
				</g>
				<g>
					<g>
						<path fill="#5893D4" d="M203.536,352.5c-0.302,0-0.559-0.237-0.579-0.543l-0.389-5.683c-0.021-0.321,0.22-0.599,0.54-0.619
							c0.309-0.016,0.596,0.219,0.62,0.54l0.389,5.683c0.022,0.319-0.22,0.596-0.54,0.619
							C203.563,352.497,203.55,352.5,203.536,352.5z"/>
					</g>
					<g>
						<path fill="#5893D4" d="M205.329,378.74c-0.304,0-0.559-0.234-0.58-0.54l-0.388-5.685c-0.021-0.319,0.22-0.596,0.54-0.62
							c0.314-0.016,0.598,0.222,0.62,0.541l0.389,5.685c0.021,0.319-0.22,0.596-0.54,0.619
							C205.356,378.74,205.342,378.74,205.329,378.74z"/>
					</g>
				</g>
				<g>
					<g>
						<path fill="#5893D4" d="M214.518,362.076c-0.303,0-0.559-0.234-0.58-0.543c-0.022-0.318,0.22-0.596,0.54-0.619l5.685-0.388
							c0.322-0.014,0.597,0.219,0.62,0.54c0.021,0.319-0.22,0.597-0.541,0.62l-5.685,0.388
							C214.544,362.074,214.53,362.076,214.518,362.076z"/>
					</g>
					<g>
						<path fill="#5893D4" d="M188.275,363.867c-0.303,0-0.559-0.234-0.58-0.541c-0.022-0.321,0.22-0.599,0.54-0.619l5.685-0.391
							c0.309-0.021,0.597,0.222,0.62,0.541c0.022,0.318-0.219,0.596-0.54,0.619l-5.685,0.391
							C188.302,363.867,188.287,363.867,188.275,363.867z"/>
					</g>
				</g>
				<g>
					<g>
						<path fill="#5893D4" d="M216.296,373.295c-0.136,0-0.271-0.045-0.382-0.143l-4.292-3.744
							c-0.242-0.208-0.268-0.577-0.057-0.817c0.211-0.242,0.579-0.266,0.819-0.058l4.293,3.744c0.242,0.211,0.267,0.577,0.057,0.819
							C216.62,373.23,216.458,373.295,216.296,373.295z"/>
					</g>
					<g>
						<path fill="#5893D4" d="M196.473,356.006c-0.137,0-0.271-0.048-0.382-0.143l-4.293-3.744
							c-0.242-0.211-0.268-0.577-0.057-0.819c0.213-0.24,0.578-0.264,0.821-0.056l4.293,3.744c0.241,0.211,0.267,0.577,0.055,0.82
							C196.796,355.941,196.635,356.006,196.473,356.006z"/>
					</g>
				</g>
				<g>
					<g>
						<path fill="#5893D4" d="M193.723,374.837c-0.136,0-0.271-0.047-0.381-0.145c-0.242-0.211-0.268-0.577-0.056-0.82l3.744-4.292
							c0.21-0.24,0.578-0.267,0.819-0.056c0.242,0.211,0.268,0.577,0.055,0.82l-3.743,4.292
							C194.046,374.769,193.885,374.837,193.723,374.837z"/>
					</g>
					<g>
						<path fill="#5893D4" d="M211.011,355.012c-0.137,0-0.271-0.047-0.382-0.143c-0.241-0.211-0.267-0.58-0.057-0.819l3.744-4.293
							c0.211-0.242,0.579-0.267,0.819-0.058c0.241,0.211,0.267,0.577,0.057,0.819l-3.744,4.293
							C211.335,354.944,211.175,355.012,211.011,355.012z"/>
					</g>
				</g>
			</g>
			<g>
				<g>
					<path fill="#5893D4" d="M213.332,471.036c-2.022,0-3.667-1.645-3.667-3.665c0-2.022,1.645-3.667,3.667-3.667
						c2.022,0,3.668,1.645,3.668,3.667S215.354,471.036,213.332,471.036z M213.332,464.866c-1.379,0-2.503,1.124-2.503,2.503
						c0,1.381,1.124,2.505,2.503,2.505c1.381,0,2.506-1.124,2.506-2.505C215.838,465.99,214.714,464.866,213.332,464.866z"/>
				</g>
				<g>
					<g>
						<path fill="#5893D4" d="M213.332,462.193c-0.322,0-0.582-0.262-0.582-0.583v-3.133c0-0.321,0.26-0.582,0.582-0.582
							c0.321,0,0.582,0.261,0.582,0.582v3.133C213.914,461.931,213.653,462.193,213.332,462.193z"/>
					</g>
					<g>
						<path fill="#5893D4" d="M213.332,476.666c-0.322,0-0.582-0.261-0.582-0.583v-3.132c0-0.322,0.26-0.58,0.582-0.58
							c0.321,0,0.582,0.258,0.582,0.58v3.135C213.914,476.405,213.653,476.666,213.332,476.666z"/>
					</g>
				</g>
				<g>
					<g>
						<path fill="#5893D4" d="M222.137,467.864H219c-0.321,0-0.582-0.261-0.582-0.582c0-0.322,0.261-0.583,0.582-0.583h3.136
							c0.321,0,0.582,0.261,0.582,0.583C222.718,467.603,222.458,467.864,222.137,467.864z"/>
					</g>
					<g>
						<path fill="#5893D4" d="M207.665,467.864h-3.136c-0.322,0-0.582-0.261-0.582-0.582c0-0.322,0.26-0.583,0.582-0.583h3.136
							c0.321,0,0.582,0.261,0.582,0.583C208.247,467.603,207.985,467.864,207.665,467.864z"/>
					</g>
				</g>
				<g>
					<g>
						<path fill="#5893D4" d="M219.557,474.086c-0.148,0-0.297-0.055-0.411-0.169l-2.217-2.215c-0.227-0.227-0.227-0.596,0-0.822
							c0.229-0.229,0.596-0.227,0.823,0l2.216,2.215c0.227,0.227,0.227,0.596,0,0.822
							C219.854,474.032,219.705,474.086,219.557,474.086z"/>
					</g>
					<g>
						<path fill="#5893D4" d="M209.322,463.854c-0.148,0-0.296-0.056-0.412-0.169l-2.215-2.218c-0.227-0.227-0.227-0.593,0-0.822
							c0.227-0.228,0.594-0.228,0.822,0l2.215,2.217c0.227,0.228,0.227,0.594,0,0.823
							C209.62,463.798,209.471,463.854,209.322,463.854z"/>
					</g>
				</g>
				<g>
					<g>
						<path fill="#5893D4" d="M207.108,474.086c-0.148,0-0.297-0.055-0.41-0.169c-0.227-0.227-0.227-0.593,0-0.819l2.217-2.218
							c0.227-0.229,0.594-0.229,0.821,0c0.227,0.227,0.227,0.594,0,0.82l-2.217,2.217
							C207.405,474.032,207.257,474.086,207.108,474.086z"/>
					</g>
					<g>
						<path fill="#5893D4" d="M217.341,463.854c-0.148,0-0.297-0.056-0.411-0.169c-0.227-0.227-0.227-0.596,0-0.823l2.215-2.217
							c0.228-0.228,0.595-0.228,0.822,0c0.227,0.227,0.227,0.596,0,0.822l-2.215,2.218
							C217.639,463.798,217.49,463.854,217.341,463.854z"/>
					</g>
				</g>
			</g>
			<g>
				<path fill="#5893D4" d="M228.792,403.183c-2.022,0-3.668-1.646-3.668-3.668c0-2.02,1.646-3.665,3.668-3.665
					s3.667,1.646,3.667,3.665C232.459,401.538,230.813,403.183,228.792,403.183z M228.792,397.013c-1.381,0-2.506,1.123-2.506,2.505
					c0,1.379,1.125,2.502,2.506,2.502s2.504-1.123,2.504-2.502C231.296,398.136,230.173,397.013,228.792,397.013z"/>
			</g>
			<g>
				<path fill="#5893D4" d="M326.125,438.041c-2.022,0-3.666-1.644-3.666-3.665c0-2.022,1.645-3.668,3.666-3.668
					c2.022,0,3.668,1.646,3.668,3.668C329.794,436.395,328.148,438.041,326.125,438.041z M326.125,431.871
					c-1.381,0-2.504,1.123-2.504,2.505c0,1.379,1.123,2.502,2.504,2.502c1.381,0,2.506-1.123,2.506-2.502
					C328.63,432.994,327.507,431.871,326.125,431.871z"/>
			</g>
			<g>
				<path fill="#5893D4" d="M502.646,429.183c-2.022,0-3.669-1.646-3.669-3.667c0-2.022,1.646-3.665,3.669-3.665
					s3.666,1.645,3.666,3.665C506.312,427.538,504.668,429.183,502.646,429.183z M502.646,423.011c-1.382,0-2.505,1.123-2.505,2.505
					c0,1.379,1.124,2.502,2.505,2.502c1.379,0,2.504-1.123,2.504-2.502C505.149,424.134,504.025,423.011,502.646,423.011z"/>
			</g>
			<g>
				<path fill="#5893D4" d="M590.293,466.913c-2.022,0-3.667-1.646-3.667-3.668c0-2.02,1.645-3.665,3.667-3.665
					c2.021,0,3.667,1.643,3.667,3.665S592.314,466.913,590.293,466.913z M590.293,460.743c-1.381,0-2.504,1.123-2.504,2.502
					c0,1.382,1.123,2.505,2.504,2.505c1.38,0,2.505-1.123,2.505-2.505C592.798,461.866,591.674,460.743,590.293,460.743z"/>
			</g>
			<g>
				<g>
					<path fill="#5893D4" d="M180.948,387.723c-2.022,0-3.666-1.643-3.666-3.665c0-2.021,1.645-3.667,3.666-3.667
						c2.022,0,3.668,1.646,3.668,3.667C184.618,386.081,182.97,387.723,180.948,387.723z M180.948,381.553
						c-1.381,0-2.504,1.124-2.504,2.505c0,1.379,1.123,2.503,2.504,2.503c1.381,0,2.506-1.124,2.506-2.503
						C183.454,382.677,182.33,381.553,180.948,381.553z"/>
				</g>
				<g>
					<g>
						<path fill="#5893D4" d="M180.948,378.882c-0.321,0-0.582-0.261-0.582-0.582v-3.133c0-0.321,0.261-0.583,0.582-0.583
							c0.322,0,0.582,0.262,0.582,0.583v3.133C181.53,378.622,181.27,378.882,180.948,378.882z"/>
					</g>
					<g>
						<path fill="#5893D4" d="M180.948,393.356c-0.321,0-0.582-0.262-0.582-0.58v-3.136c0-0.321,0.261-0.582,0.582-0.582
							c0.322,0,0.582,0.261,0.582,0.582v3.136C181.53,393.094,181.27,393.356,180.948,393.356z"/>
					</g>
				</g>
				<g>
					<g>
						<path fill="#5893D4" d="M189.751,384.551h-3.135c-0.321,0-0.582-0.258-0.582-0.58c0-0.321,0.261-0.582,0.582-0.582h3.135
							c0.321,0,0.582,0.261,0.582,0.582C190.333,384.293,190.073,384.551,189.751,384.551z"/>
					</g>
					<g>
						<path fill="#5893D4" d="M175.28,384.551h-3.135c-0.321,0-0.582-0.258-0.582-0.58c0-0.321,0.261-0.582,0.582-0.582h3.135
							c0.321,0,0.581,0.261,0.581,0.582C175.861,384.293,175.601,384.551,175.28,384.551z"/>
					</g>
				</g>
				<g>
					<g>
						<path fill="#5893D4" d="M187.171,390.777c-0.148,0-0.297-0.056-0.41-0.169l-2.215-2.215c-0.227-0.227-0.227-0.596,0-0.822
							c0.228-0.227,0.595-0.227,0.822,0l2.215,2.215c0.227,0.227,0.227,0.596,0,0.822
							C187.469,390.721,187.321,390.777,187.171,390.777z"/>
					</g>
					<g>
						<path fill="#5893D4" d="M176.939,380.542c-0.149,0-0.297-0.056-0.411-0.169l-2.217-2.215c-0.227-0.227-0.227-0.596,0-0.823
							c0.228-0.229,0.595-0.227,0.822,0l2.217,2.215c0.227,0.228,0.227,0.597,0,0.823
							C177.235,380.486,177.088,380.542,176.939,380.542z"/>
					</g>
				</g>
				<g>
					<g>
						<path fill="#5893D4" d="M174.723,390.777c-0.149,0-0.297-0.056-0.411-0.169c-0.227-0.227-0.227-0.596,0-0.822l2.217-2.218
							c0.228-0.227,0.595-0.227,0.822,0c0.227,0.227,0.227,0.596,0,0.822l-2.217,2.218
							C175.02,390.721,174.872,390.777,174.723,390.777z"/>
					</g>
					<g>
						<path fill="#5893D4" d="M184.957,380.542c-0.149,0-0.297-0.056-0.411-0.169c-0.227-0.227-0.227-0.594,0-0.82l2.215-2.218
							c0.227-0.227,0.594-0.227,0.821,0c0.227,0.228,0.227,0.597,0,0.823l-2.216,2.215
							C185.253,380.486,185.106,380.542,184.957,380.542z"/>
					</g>
				</g>
			</g>
			<g>
				<g>
					<path fill="#5893D4" d="M514.677,405.679c-2.021,0-3.668-1.643-3.668-3.662c0-2.024,1.646-3.67,3.668-3.67
						c2.022,0,3.668,1.646,3.668,3.67C518.346,404.037,516.699,405.679,514.677,405.679z M514.677,399.509
						c-1.38,0-2.504,1.126-2.504,2.508c0,1.379,1.125,2.5,2.504,2.5c1.38,0,2.505-1.121,2.505-2.5
						C517.182,400.633,516.059,399.509,514.677,399.509z"/>
				</g>
				<g>
					<g>
						<path fill="#5893D4" d="M514.677,396.838c-0.32,0-0.581-0.261-0.581-0.58v-3.135c0-0.321,0.261-0.583,0.581-0.583
							c0.321,0,0.583,0.262,0.583,0.583v3.135C515.26,396.578,514.998,396.838,514.677,396.838z"/>
					</g>
					<g>
						<path fill="#5893D4" d="M514.677,411.312c-0.32,0-0.581-0.259-0.581-0.58v-3.136c0-0.321,0.261-0.582,0.581-0.582
							c0.321,0,0.583,0.261,0.583,0.582v3.136C515.26,411.053,514.998,411.312,514.677,411.312z"/>
					</g>
				</g>
				<g>
					<g>
						<path fill="#5893D4" d="M523.48,402.507h-3.136c-0.32,0-0.582-0.261-0.582-0.582c0-0.319,0.262-0.58,0.582-0.58h3.136
							c0.322,0,0.582,0.261,0.582,0.58C524.062,402.247,523.803,402.507,523.48,402.507z"/>
					</g>
					<g>
						<path fill="#5893D4" d="M509.008,402.507h-3.134c-0.321,0-0.581-0.261-0.581-0.582c0-0.319,0.26-0.58,0.581-0.58h3.134
							c0.321,0,0.581,0.261,0.581,0.58C509.589,402.247,509.329,402.507,509.008,402.507z"/>
					</g>
				</g>
				<g>
					<g>
						<path fill="#5893D4" d="M520.9,408.733c-0.147,0-0.296-0.056-0.41-0.169l-2.217-2.215c-0.227-0.227-0.227-0.596,0-0.822
							c0.229-0.229,0.596-0.227,0.822,0l2.218,2.215c0.227,0.227,0.227,0.596,0,0.822C521.2,408.677,521.051,408.733,520.9,408.733z
							"/>
					</g>
					<g>
						<path fill="#5893D4" d="M510.668,398.5c-0.148,0-0.297-0.058-0.412-0.171l-2.216-2.218c-0.227-0.227-0.227-0.593,0-0.822
							c0.227-0.227,0.594-0.227,0.821,0l2.218,2.22c0.227,0.227,0.227,0.594,0,0.82C510.964,398.442,510.816,398.5,510.668,398.5z"
							/>
					</g>
				</g>
				<g>
					<g>
						<path fill="#5893D4" d="M508.451,408.733c-0.148,0-0.296-0.056-0.41-0.169c-0.228-0.227-0.228-0.596,0-0.822l2.217-2.218
							c0.228-0.229,0.596-0.227,0.822,0s0.227,0.596,0,0.823l-2.217,2.217C508.748,408.677,508.6,408.733,508.451,408.733z"/>
					</g>
					<g>
						<path fill="#5893D4" d="M518.686,398.5c-0.148,0-0.296-0.058-0.41-0.171c-0.227-0.227-0.227-0.594,0-0.82l2.217-2.22
							c0.228-0.227,0.595-0.227,0.822,0c0.227,0.227,0.227,0.596,0,0.822l-2.217,2.218C518.982,398.442,518.834,398.5,518.686,398.5
							z"/>
					</g>
				</g>
			</g>
			<g>
				<g>
					<path fill="#5893D4" d="M596.679,349.781c-2.022,0-3.668-1.645-3.668-3.665c0-2.022,1.646-3.665,3.668-3.665
						s3.668,1.643,3.668,3.665C600.347,348.136,598.701,349.781,596.679,349.781z M596.679,343.611c-1.38,0-2.504,1.124-2.504,2.503
						c0,1.382,1.125,2.505,2.504,2.505c1.38,0,2.505-1.123,2.505-2.505C599.184,344.735,598.061,343.611,596.679,343.611z"/>
				</g>
				<g>
					<g>
						<path fill="#5893D4" d="M596.679,340.938c-0.32,0-0.581-0.262-0.581-0.58v-3.136c0-0.321,0.261-0.582,0.581-0.582
							c0.321,0,0.583,0.261,0.583,0.582v3.136C597.262,340.679,597,340.938,596.679,340.938z"/>
					</g>
					<g>
						<path fill="#5893D4" d="M596.679,355.411c-0.32,0-0.581-0.259-0.581-0.58v-3.135c0-0.322,0.261-0.583,0.581-0.583
							c0.321,0,0.583,0.261,0.583,0.583v3.135C597.262,355.152,597,355.411,596.679,355.411z"/>
					</g>
				</g>
				<g>
					<g>
						<path fill="#5893D4" d="M605.482,346.609h-3.135c-0.321,0-0.581-0.261-0.581-0.582c0-0.322,0.26-0.583,0.581-0.583h3.135
							c0.322,0,0.582,0.261,0.582,0.583C606.064,346.348,605.803,346.609,605.482,346.609z"/>
					</g>
					<g>
						<path fill="#5893D4" d="M591.01,346.609h-3.137c-0.321,0-0.582-0.261-0.582-0.582c0-0.322,0.261-0.583,0.582-0.583h3.137
							c0.32,0,0.581,0.261,0.581,0.583C591.591,346.348,591.33,346.609,591.01,346.609z"/>
					</g>
				</g>
				<g>
					<g>
						<path fill="#5893D4" d="M602.902,352.834c-0.148,0-0.296-0.056-0.41-0.169l-2.217-2.217c-0.227-0.228-0.227-0.597,0-0.823
							c0.228-0.229,0.596-0.227,0.822,0l2.217,2.218c0.227,0.227,0.227,0.596,0,0.822
							C603.199,352.779,603.052,352.834,602.902,352.834z"/>
					</g>
					<g>
						<path fill="#5893D4" d="M592.667,342.601c-0.149,0-0.297-0.058-0.411-0.171l-2.217-2.218c-0.227-0.227-0.227-0.593,0-0.82
							c0.228-0.227,0.595-0.227,0.823,0l2.215,2.215c0.227,0.228,0.227,0.597,0,0.823
							C592.965,342.543,592.817,342.601,592.667,342.601z"/>
					</g>
				</g>
				<g>
					<g>
						<path fill="#5893D4" d="M590.452,352.834c-0.149,0-0.298-0.058-0.413-0.171c-0.227-0.228-0.227-0.594,0-0.823l2.219-2.218
							c0.228-0.227,0.594-0.227,0.822,0c0.227,0.229,0.227,0.597,0,0.823l-2.218,2.218
							C590.75,352.777,590.602,352.834,590.452,352.834z"/>
					</g>
					<g>
						<path fill="#5893D4" d="M600.687,342.601c-0.149,0-0.298-0.058-0.411-0.171c-0.227-0.227-0.227-0.594,0-0.82l2.217-2.218
							c0.228-0.227,0.594-0.227,0.82,0c0.227,0.228,0.227,0.594,0,0.82l-2.216,2.218
							C600.984,342.543,600.836,342.601,600.687,342.601z"/>
					</g>
				</g>
			</g>
			<g>
				<g>
					<path fill="#5893D4" d="M533.165,372.053c-2.022,0-3.667-1.646-3.667-3.667c0-2.021,1.645-3.665,3.667-3.665
						s3.667,1.645,3.667,3.665C536.832,370.408,535.187,372.053,533.165,372.053z M533.165,365.883c-1.38,0-2.503,1.124-2.503,2.503
						c0,1.381,1.124,2.505,2.503,2.505c1.381,0,2.505-1.124,2.505-2.505C535.67,367.007,534.547,365.883,533.165,365.883z"/>
				</g>
				<g>
					<g>
						<path fill="#5893D4" d="M533.165,363.21c-0.321,0-0.581-0.262-0.581-0.583v-3.136c0-0.321,0.26-0.58,0.581-0.58
							c0.322,0,0.583,0.259,0.583,0.58v3.136C533.745,362.949,533.487,363.21,533.165,363.21z"/>
					</g>
					<g>
						<path fill="#5893D4" d="M533.165,377.683c-0.321,0-0.581-0.259-0.581-0.58v-3.135c0-0.322,0.26-0.583,0.581-0.583
							c0.322,0,0.583,0.261,0.583,0.583v3.135C533.745,377.424,533.487,377.683,533.165,377.683z"/>
					</g>
				</g>
				<g>
					<g>
						<path fill="#5893D4" d="M541.967,368.878h-3.134c-0.321,0-0.581-0.261-0.581-0.582c0-0.319,0.26-0.58,0.581-0.58h3.134
							c0.32,0,0.581,0.261,0.581,0.58C542.548,368.618,542.287,368.878,541.967,368.878z"/>
					</g>
					<g>
						<path fill="#5893D4" d="M527.494,368.878h-3.134c-0.322,0-0.583-0.261-0.583-0.582c0-0.319,0.261-0.58,0.583-0.58h3.134
							c0.321,0,0.582,0.261,0.582,0.58C528.076,368.618,527.815,368.878,527.494,368.878z"/>
					</g>
				</g>
				<g>
					<g>
						<path fill="#5893D4" d="M539.39,375.107c-0.149,0-0.297-0.059-0.411-0.172l-2.218-2.217c-0.227-0.227-0.227-0.594,0-0.823
							c0.227-0.227,0.595-0.227,0.822,0l2.217,2.218c0.227,0.227,0.227,0.594,0,0.822
							C539.686,375.048,539.538,375.107,539.39,375.107z"/>
					</g>
					<g>
						<path fill="#5893D4" d="M529.155,364.871c-0.149,0-0.297-0.055-0.41-0.168l-2.218-2.218c-0.227-0.227-0.227-0.596,0-0.822
							c0.229-0.229,0.596-0.228,0.823,0l2.216,2.217c0.227,0.228,0.227,0.597,0,0.823
							C529.451,364.816,529.304,364.871,529.155,364.871z"/>
					</g>
				</g>
				<g>
					<g>
						<path fill="#5893D4" d="M526.938,375.104c-0.147,0-0.297-0.058-0.411-0.171c-0.227-0.227-0.227-0.594,0-0.82l2.218-2.218
							c0.227-0.227,0.593-0.227,0.821,0c0.227,0.228,0.227,0.594,0,0.823l-2.217,2.215
							C527.235,375.046,527.087,375.104,526.938,375.104z"/>
					</g>
					<g>
						<path fill="#5893D4" d="M537.173,364.871c-0.148,0-0.298-0.055-0.411-0.168c-0.227-0.227-0.227-0.596,0-0.823l2.218-2.215
							c0.227-0.229,0.593-0.229,0.82,0c0.227,0.228,0.227,0.594,0,0.82l-2.217,2.218
							C537.47,364.816,537.321,364.871,537.173,364.871z"/>
					</g>
				</g>
			</g>
			<g>
				<path fill="#070D59" d="M121.679,140.155c-0.158,0.033-0.414-0.091-0.552-0.251l-8.499-9.71
					c-0.268-0.305-0.236-0.769,0.069-1.037c0.307-0.266,0.77-0.236,1.037,0.069l7.953,9.088l18.628-20.751
					c0.271-0.301,0.735-0.327,1.037-0.057c0.302,0.271,0.327,0.734,0.057,1.037l-19.182,21.366
					C122.086,140.066,121.887,140.155,121.679,140.155z"/>
			</g>
		</g>
		<g>
			<g>
				<g>
					<path fill="#E95C5D" d="M71.057,318.335c0,0-0.828,6.798,3.271,8.414c4.103,1.621,10.92,2.167,10.954,5.655l-22.778,0.014
						l-0.061-14.083H71.057z"/>
				</g>
				<g>
					<path fill="#1E56A0" d="M74.716,324.257c0,0-0.34-46.481,0.142-49.727c0.486-3.247-28.296-14.567-28.296-14.567l9.659-11.436
						l-24.549,1.563c0,0-2.51,4.161,0.028,12.57c5.587,18.515,27.369,13.89,27.369,13.89l2.29,47.353L74.716,324.257z"/>
				</g>
				<g>
					<g>
						<path fill="#FFB48E" d="M37.889,211.622c0,0,1.152-0.961,1.35-1.716c0.919-3.485-0.61-5.602-1.473-6.222
							c-1.267-0.909,4.157-8.326,4.157-8.326l10.6,10.641c0,0-4.949,0.643-5.021,6.417c0,0-0.461,2.022-2.561,1.468
							C43.36,213.466,37.889,211.622,37.889,211.622z"/>
					</g>
					<g>
						<path fill="#1F3C88" d="M43.641,198.682c0,0-4.641,6.354-5.498,5.681c-4.15-3.259-7.031-8.517-5.231-13.097
							c1.804-4.575,5.303-8.22,10.333-7.845c5.035,0.375,9.282-3.085,11.879-3.273c2.602-0.189,5.23,7.807-2.67,9.909
							C52.453,190.059,51.132,199.509,43.641,198.682z"/>
					</g>
					<g>
						<path fill="#FFB48E" d="M52.772,188.955c0,0,1.624,5.373,3.885,5.534c0.256,0.02,0.663,0.068,0.745,0.427
							c0.101,0.447-0.187,1.022-2.69,1.543c0,0,0.317,1.037,0.43,2.474c0,0-1.216,0.253-2.449-0.421
							c-0.106-0.056,0.239,1.185,2.487,1.742c0,0-0.534,0.908-0.633,2.062c-0.104,1.298-0.088,3.386-1.416,3.761
							c-1.363,0.386-8.893-5.412-9.903-6.364c-1.374-1.3-2.323-2.915-1.523-4.488c0.989-1.948,1.873-0.179,2.539,1.422
							c0.268,0.635,1.349,1.237,1.944-0.207c0.142-0.341,0.039-4.066,0.798-6.47C47.764,187.512,52.772,188.955,52.772,188.955z"/>
					</g>
				</g>
				<g>
					<path fill="#E64A4B" d="M45.382,340.605c0,0-0.825,6.803,3.271,8.422c4.102,1.622,10.912,2.168,10.949,5.661l-22.759,0.016
						l-0.07-14.096L45.382,340.605z"/>
				</g>
				<g>
					<path fill="#1F3C88" d="M33.428,298.737l2.312,47.4l13.345,0.348c0,0-0.364-46.525,0.114-49.773"/>
				</g>
			</g>
			<g>
				<g>
					<polygon fill="#EBF1F7" points="7.407,233.308 26.758,235.508 26.242,245.034 4.558,242.146 					"/>
				</g>
				<g opacity="0.2">
					<polygon fill="#5893D4" points="21.098,234.864 12.807,239.464 18.411,234.557 					"/>
				</g>
				<g opacity="0.2">
					<path fill="#5893D4" d="M23.982,235.191l2.776,0.316l-0.514,9.526l-4.688-0.625C21.93,238.592,23.982,235.191,23.982,235.191z"
						/>
				</g>
			</g>
			<g>
				<path fill="#EBF1F7" d="M24.842,229.323c-8.056,7.17-17.921,17.056-22.539,11.249c-4.618-5.81,2.744-10.73,5.145-12.741
					c13.883-11.614,12.907-14.832,31.81-16.862C62.528,208.467,24.842,229.323,24.842,229.323z"/>
			</g>
			<g>
				<path fill="#EBF1F7" d="M41.237,210.421c9.789-0.357,15.996,1.999,20.106,3.579c0,0,3.56,8.511,3.574,12.191
					c0.027,7.103-6.098,28.059-4.838,34.546c6.917,3.02,14.792,1.591,17.196,21.046c2.088,16.901,4.099,33.739,4.099,33.739
					c-32.458,7.119-32.144,17.64-59.226,18.215c-0.502,0.011,0.978-47.951,0.978-67.08c0-19.129,1.319-36.21,0.346-43.346
					C22.5,216.177,31.447,210.777,41.237,210.421z"/>
			</g>
			<g opacity="0.2">
				<path fill="#5893D4" d="M60.108,226.366c0.056,4.327-0.445,13.01,1.193,13.24c1.105,0.157,2.631-6.234,2.637-6.252
					c0.437-2.107,0.778-4.059,0.914-5.694L60.108,226.366z"/>
			</g>
		</g>
		<g>
			<g>
				<polygon fill="#1F3C88" points="113.924,176.302 116.671,177.807 117.239,179.773 94.953,275.212 91.517,272.267 				"/>
			</g>
			<g>
				<polygon fill="#1F3C88" points="106.289,174.623 107.987,174.91 85.577,270.876 81.193,271.987 103.488,176.487 				"/>
			</g>
			<g>
				<polygon fill="#5893D4" points="107.987,174.91 113.924,176.302 91.517,272.267 85.577,270.876 				"/>
			</g>
			<g>
				<path fill="#FFB48E" d="M93.305,282.278l1.65-7.067l-0.038-0.008c0.183-1.72-2.475-3.745-6.142-4.604
					c-3.665-0.86-6.946-0.226-7.541,1.398l-0.04-0.008l-1.65,7.066L93.305,282.278z"/>
			</g>
			<g>
				<path fill="#E64A4B" d="M78.996,281.4c-0.892,3.81,1.477,7.622,5.287,8.516c3.809,0.893,7.618-1.471,8.506-5.283
					c0.431-1.837,0.318-1.516,0.516-2.357c0.409-1.757-2.338-3.905-6.137-4.794c-3.8-0.89-7.212-0.188-7.624,1.571
					C79.347,279.901,79.422,279.569,78.996,281.4z"/>
			</g>
			<g>
				<g>
					<path fill="#FFB48E" d="M110.292,167.056c-3.125,4.317-6.962,9.624-6.811,9.49c1.254-1.127,4.196-1.469,7.422-0.71
						c3.225,0.754,5.71,2.365,6.337,3.934c0.074,0.184-1.011-6.272-1.902-11.532c-0.755-0.319-1.581-0.598-2.472-0.807
						C111.974,167.221,111.11,167.104,110.292,167.056z"/>
				</g>
				<g>
					<path fill="#1F3C88" d="M110.292,167.056c0.818,0.05,1.682,0.166,2.574,0.374c0.891,0.209,1.717,0.488,2.472,0.808
						c-0.606-3.572-1.124-6.591-1.124-6.591S112.417,164.124,110.292,167.056z"/>
				</g>
			</g>
		</g>
		<g>
			<g>
				<path fill="#FFB48E" d="M108.178,213.909c0,0,4.819-4.146,6.013-5.827c0.448-0.624,0.339-3.286,0.229-3.405
					c-0.563-0.597-0.908,2.347-0.604,2.751c0.153,0.204,0.174-1.079,0.384-1.739c0.449-1.438,0.69-2.04,0.112-2.657
					c-0.535-0.581-1.246,2.931-1.246,2.931s1.926-3.205,0.768-4.005c-0.771-0.535-2.052,2.809-2.052,2.809s1.268-1.726,1.484-2.63
					c0.181-0.764-0.069-1.214-0.558-1.262c-0.616,1.213-1.716,2.374-1.716,2.374l-1.931,2.037c-0.475,0.019,2.175-2.354,0.591-4.582
					c0,0-1.216,2.333-2.392,4.025c-0.492,0.71-2.749,3.178-2.508,5.701C104.973,212.698,108.178,213.909,108.178,213.909z"/>
			</g>
			<g>
				<path fill="#EBF1F7" d="M48.157,213.456c-2.064,2.919-0.336,6.583,7.823,12.414c3.995,2.855,17.116,8.295,23.384,8.459
					c19.061,0.493,30.428-20.024,30.428-20.024s-2.855-3.976-6.28-5.226c0,0-12.967,12.534-20.977,12.726
					c-5.319,0.132-17.51-6.905-26.442-9.757C51.572,210.605,49.694,211.284,48.157,213.456z"/>
			</g>
		</g>
	</g>
</g>
</svg>
